<svg width="3122" height="1961" viewBox="0 0 3122 1961" fill="none" xmlns="http://www.w3.org/2000/svg">
<path d="M973.47 1006.57C974.752 1006.57 975.791 1005.53 975.791 1004.25C975.791 1002.96 974.752 1001.92 973.47 1001.92C972.187 1001.92 971.148 1002.96 971.148 1004.25C971.148 1005.53 972.187 1006.57 973.47 1006.57Z" fill="white"/>
<path d="M1551.62 1027.15C1552.91 1027.15 1553.94 1026.12 1553.94 1024.83C1553.94 1023.55 1552.91 1022.51 1551.62 1022.51C1550.34 1022.51 1549.3 1023.55 1549.3 1024.83C1549.3 1026.12 1550.34 1027.15 1551.62 1027.15Z" fill="white"/>
<path d="M662.036 224.65C663.318 224.65 664.357 223.61 664.357 222.328C664.357 221.046 663.318 220.006 662.036 220.006C660.754 220.006 659.714 221.046 659.714 222.328C659.714 223.61 660.754 224.65 662.036 224.65Z" fill="white"/>
<path d="M2692.56 69.8126C2693.84 69.8126 2694.88 68.7732 2694.88 67.491C2694.88 66.2088 2693.84 65.1694 2692.56 65.1694C2691.28 65.1694 2690.24 66.2088 2690.24 67.491C2690.24 68.7732 2691.28 69.8126 2692.56 69.8126Z" fill="white"/>
<path d="M1969.54 1048.84C1970.82 1048.84 1971.86 1047.8 1971.86 1046.52C1971.86 1045.24 1970.82 1044.2 1969.54 1044.2C1968.26 1044.2 1967.22 1045.24 1967.22 1046.52C1967.22 1047.8 1968.26 1048.84 1969.54 1048.84Z" fill="white"/>
<path d="M728.522 1311.51C729.804 1311.51 730.844 1310.47 730.844 1309.18C730.844 1307.9 729.804 1306.86 728.522 1306.86C727.24 1306.86 726.2 1307.9 726.2 1309.18C726.2 1310.47 727.24 1311.51 728.522 1311.51Z" fill="white"/>
<path d="M850.857 1227.99C852.139 1227.99 853.178 1226.95 853.178 1225.66C853.178 1224.38 852.139 1223.34 850.857 1223.34C849.574 1223.34 848.535 1224.38 848.535 1225.66C848.535 1226.95 849.574 1227.99 850.857 1227.99Z" fill="white"/>
<path d="M346.858 1037.59C348.14 1037.59 349.179 1036.55 349.179 1035.27C349.179 1033.99 348.14 1032.95 346.858 1032.95C345.576 1032.95 344.536 1033.99 344.536 1035.27C344.536 1036.55 345.576 1037.59 346.858 1037.59Z" fill="white"/>
<path d="M1486.86 1154.42C1488.14 1154.42 1489.18 1153.38 1489.18 1152.1C1489.18 1150.81 1488.14 1149.77 1486.86 1149.77C1485.57 1149.77 1484.53 1150.81 1484.53 1152.1C1484.53 1153.38 1485.57 1154.42 1486.86 1154.42Z" fill="white"/>
<path d="M644.756 1244.84C646.038 1244.84 647.077 1243.8 647.077 1242.52C647.077 1241.24 646.038 1240.2 644.756 1240.2C643.473 1240.2 642.434 1241.24 642.434 1242.52C642.434 1243.8 643.473 1244.84 644.756 1244.84Z" fill="white"/>
<path d="M2150.62 817.829C2153.18 817.829 2155.26 815.75 2155.26 813.185C2155.26 810.621 2153.18 808.542 2150.62 808.542C2148.05 808.542 2145.98 810.621 2145.98 813.185C2145.98 815.75 2148.05 817.829 2150.62 817.829Z" fill="white"/>
<path d="M1724.11 1099.94C1726.68 1099.94 1728.76 1097.86 1728.76 1095.3C1728.76 1092.74 1726.68 1090.66 1724.11 1090.66C1721.55 1090.66 1719.47 1092.74 1719.47 1095.3C1719.47 1097.86 1721.55 1099.94 1724.11 1099.94Z" fill="white"/>
<path d="M1287.18 159.291C1289.74 159.291 1291.82 157.213 1291.82 154.648C1291.82 152.084 1289.74 150.005 1287.18 150.005C1284.61 150.005 1282.53 152.084 1282.53 154.648C1282.53 157.213 1284.61 159.291 1287.18 159.291Z" fill="white"/>
<path d="M1276.4 211.025C1278.97 211.025 1281.05 208.946 1281.05 206.381C1281.05 203.817 1278.97 201.738 1276.4 201.738C1273.84 201.738 1271.76 203.817 1271.76 206.381C1271.76 208.946 1273.84 211.025 1276.4 211.025Z" fill="white"/>
<path d="M767.85 248.774C770.414 248.774 772.493 246.695 772.493 244.131C772.493 241.566 770.414 239.488 767.85 239.488C765.285 239.488 763.207 241.566 763.207 244.131C763.207 246.695 765.285 248.774 767.85 248.774Z" fill="white"/>
<path d="M2378.26 1388.62C2380.82 1388.62 2382.9 1386.54 2382.9 1383.98C2382.9 1381.41 2380.82 1379.34 2378.26 1379.34C2375.69 1379.34 2373.61 1381.41 2373.61 1383.98C2373.61 1386.54 2375.69 1388.62 2378.26 1388.62Z" fill="white"/>
<path d="M3040.17 214.403C3041.38 214.403 3042.36 213.424 3042.36 212.216C3042.36 211.008 3041.38 210.029 3040.17 210.029C3038.97 210.029 3037.99 211.008 3037.99 212.216C3037.99 213.424 3038.97 214.403 3040.17 214.403Z" fill="white"/>
<path d="M1503.57 515.394C1505.15 515.394 1506.43 514.114 1506.43 512.535C1506.43 510.957 1505.15 509.677 1503.57 509.677C1501.99 509.677 1500.71 510.957 1500.71 512.535C1500.71 514.114 1501.99 515.394 1503.57 515.394Z" fill="white"/>
<path d="M2305.64 50.964C2307.02 50.964 2308.14 49.8437 2308.14 48.4618C2308.14 47.0799 2307.02 45.9596 2305.64 45.9596C2304.26 45.9596 2303.14 47.0799 2303.14 48.4618C2303.14 49.8437 2304.26 50.964 2305.64 50.964Z" fill="white"/>
<path d="M2179.6 1386.87C2180.93 1386.87 2182.01 1385.79 2182.01 1384.46C2182.01 1383.13 2180.93 1382.05 2179.6 1382.05C2178.27 1382.05 2177.19 1383.13 2177.19 1384.46C2177.19 1385.79 2178.27 1386.87 2179.6 1386.87Z" fill="white"/>
<path d="M3.61585 185.159C4.31924 185.159 4.88948 184.589 4.88948 183.886C4.88948 183.182 4.31924 182.612 3.61585 182.612C2.91246 182.612 2.34229 183.182 2.34229 183.886C2.34229 184.589 2.91246 185.159 3.61585 185.159Z" fill="white"/>
<path d="M2003.89 1204.96C2005.73 1204.96 2007.23 1203.47 2007.23 1201.62C2007.23 1199.78 2005.73 1198.28 2003.89 1198.28C2002.04 1198.28 2000.55 1199.78 2000.55 1201.62C2000.55 1203.47 2002.04 1204.96 2003.89 1204.96Z" fill="white"/>
<path d="M689.694 154.994C690.704 154.994 691.522 154.175 691.522 153.166C691.522 152.156 690.704 151.338 689.694 151.338C688.685 151.338 687.866 152.156 687.866 153.166C687.866 154.175 688.685 154.994 689.694 154.994Z" fill="white"/>
<path d="M2506.81 1166.58C2508.47 1166.58 2509.82 1165.24 2509.82 1163.58C2509.82 1161.92 2508.47 1160.57 2506.81 1160.57C2505.15 1160.57 2503.8 1161.92 2503.8 1163.58C2503.8 1165.24 2505.15 1166.58 2506.81 1166.58Z" fill="white"/>
<path d="M2623.44 180.722C2624.47 180.722 2625.3 179.889 2625.3 178.861C2625.3 177.834 2624.47 177.001 2623.44 177.001C2622.41 177.001 2621.58 177.834 2621.58 178.861C2621.58 179.889 2622.41 180.722 2623.44 180.722Z" fill="white"/>
<path d="M630.546 678.874C632.432 678.874 633.962 677.344 633.962 675.458C633.962 673.571 632.432 672.042 630.546 672.042C628.659 672.042 627.129 673.571 627.129 675.458C627.129 677.344 628.659 678.874 630.546 678.874Z" fill="white"/>
<path d="M1801.91 1291.36C1803.3 1291.36 1804.44 1290.23 1804.44 1288.83C1804.44 1287.43 1803.3 1286.3 1801.91 1286.3C1800.51 1286.3 1799.38 1287.43 1799.38 1288.83C1799.38 1290.23 1800.51 1291.36 1801.91 1291.36Z" fill="white"/>
<path d="M2427.78 1374.62C2429.42 1374.62 2430.75 1373.29 2430.75 1371.65C2430.75 1370.01 2429.42 1368.68 2427.78 1368.68C2426.14 1368.68 2424.81 1370.01 2424.81 1371.65C2424.81 1373.29 2426.14 1374.62 2427.78 1374.62Z" fill="white"/>
<path d="M2846.15 1090.95C2848.01 1090.95 2849.53 1089.44 2849.53 1087.57C2849.53 1085.71 2848.01 1084.19 2846.15 1084.19C2844.28 1084.19 2842.77 1085.71 2842.77 1087.57C2842.77 1089.44 2844.28 1090.95 2846.15 1090.95Z" fill="white"/>
<path d="M919.742 1396.14C920.818 1396.14 921.69 1395.26 921.69 1394.19C921.69 1393.11 920.818 1392.24 919.742 1392.24C918.666 1392.24 917.793 1393.11 917.793 1394.19C917.793 1395.26 918.666 1396.14 919.742 1396.14Z" fill="white"/>
<path d="M1054.95 1130.32C1056.26 1130.32 1057.33 1129.26 1057.33 1127.95C1057.33 1126.64 1056.26 1125.57 1054.95 1125.57C1053.64 1125.57 1052.58 1126.64 1052.58 1127.95C1052.58 1129.26 1053.64 1130.32 1054.95 1130.32Z" fill="white"/>
<path d="M2645.98 179.277C2646.84 179.277 2647.55 178.575 2647.55 177.71C2647.55 176.844 2646.84 176.142 2645.98 176.142C2645.11 176.142 2644.41 176.844 2644.41 177.71C2644.41 178.575 2645.11 179.277 2645.98 179.277Z" fill="white"/>
<path d="M1050.71 1198.43C1052.56 1198.43 1054.06 1196.93 1054.06 1195.08C1054.06 1193.24 1052.56 1191.74 1050.71 1191.74C1048.87 1191.74 1047.37 1193.24 1047.37 1195.08C1047.37 1196.93 1048.87 1198.43 1050.71 1198.43Z" fill="white"/>
<path d="M2988.44 879.589C2989.16 879.589 2989.74 879.009 2989.74 878.294C2989.74 877.58 2989.16 877 2988.44 877C2987.73 877 2987.15 877.58 2987.15 878.294C2987.15 879.009 2987.73 879.589 2988.44 879.589Z" fill="white"/>
<path d="M180.383 1168.26C182.166 1168.26 183.61 1166.81 183.61 1165.03C183.61 1163.25 182.166 1161.8 180.383 1161.8C178.601 1161.8 177.157 1163.25 177.157 1165.03C177.157 1166.81 178.601 1168.26 180.383 1168.26Z" fill="white"/>
<path d="M2929.26 1383.24C2931.17 1383.24 2932.72 1381.69 2932.72 1379.79C2932.72 1377.88 2931.17 1376.33 2929.26 1376.33C2927.36 1376.33 2925.81 1377.88 2925.81 1379.79C2925.81 1381.69 2927.36 1383.24 2929.26 1383.24Z" fill="white"/>
<path d="M1698.53 1061.61C1699.26 1061.61 1699.85 1061.02 1699.85 1060.29C1699.85 1059.56 1699.26 1058.97 1698.53 1058.97C1697.8 1058.97 1697.21 1059.56 1697.21 1060.29C1697.21 1061.02 1697.8 1061.61 1698.53 1061.61Z" fill="white"/>
<path d="M2598.99 459.69C2599.81 459.69 2600.48 459.022 2600.48 458.2C2600.48 457.377 2599.81 456.709 2598.99 456.709C2598.17 456.709 2597.5 457.377 2597.5 458.2C2597.5 459.022 2598.17 459.69 2598.99 459.69Z" fill="white"/>
<path d="M516.69 334.31C518.506 334.31 519.979 332.838 519.979 331.021C519.979 329.205 518.506 327.732 516.69 327.732C514.873 327.732 513.401 329.205 513.401 331.021C513.401 332.838 514.873 334.31 516.69 334.31Z" fill="white"/>
<path d="M545.599 1193.22C547.381 1193.22 548.826 1191.78 548.826 1190C548.826 1188.21 547.381 1186.77 545.599 1186.77C543.816 1186.77 542.371 1188.21 542.371 1190C542.371 1191.78 543.816 1193.22 545.599 1193.22Z" fill="white"/>
<path d="M1764.36 920.079C1765.06 920.079 1765.62 919.514 1765.62 918.817C1765.62 918.12 1765.06 917.555 1764.36 917.555C1763.66 917.555 1763.1 918.12 1763.1 918.817C1763.1 919.514 1763.66 920.079 1764.36 920.079Z" fill="white"/>
<path d="M2966.94 356.113C2967.97 356.113 2968.81 355.276 2968.81 354.243C2968.81 353.211 2967.97 352.374 2966.94 352.374C2965.9 352.374 2965.07 353.211 2965.07 354.243C2965.07 355.276 2965.9 356.113 2966.94 356.113Z" fill="white"/>
<path d="M2623.44 299.843C2625.27 299.843 2626.75 298.362 2626.75 296.536C2626.75 294.709 2625.27 293.229 2623.44 293.229C2621.61 293.229 2620.13 294.709 2620.13 296.536C2620.13 298.362 2621.61 299.843 2623.44 299.843Z" fill="white"/>
<path d="M1856.08 174.709C1857.71 174.709 1859.03 173.388 1859.03 171.757C1859.03 170.127 1857.71 168.806 1856.08 168.806C1854.45 168.806 1853.13 170.127 1853.13 171.757C1853.13 173.388 1854.45 174.709 1856.08 174.709Z" fill="white"/>
<path d="M2796.48 468.981C2798.16 468.981 2799.53 467.615 2799.53 465.93C2799.53 464.244 2798.16 462.878 2796.48 462.878C2794.79 462.878 2793.43 464.244 2793.43 465.93C2793.43 467.615 2794.79 468.981 2796.48 468.981Z" fill="white"/>
<path d="M1421.08 735.459C1422.33 735.459 1423.35 734.446 1423.35 733.196C1423.35 731.947 1422.33 730.933 1421.08 730.933C1419.83 730.933 1418.82 731.947 1418.82 733.196C1418.82 734.446 1419.83 735.459 1421.08 735.459Z" fill="white"/>
<path d="M506.249 1080.6C507.945 1080.6 509.32 1079.22 509.32 1077.53C509.32 1075.83 507.945 1074.46 506.249 1074.46C504.553 1074.46 503.179 1075.83 503.179 1077.53C503.179 1079.22 504.553 1080.6 506.249 1080.6Z" fill="white"/>
<path d="M2434.77 751.63C2436.28 751.63 2437.5 750.404 2437.5 748.893C2437.5 747.381 2436.28 746.156 2434.77 746.156C2433.26 746.156 2432.03 747.381 2432.03 748.893C2432.03 750.404 2433.26 751.63 2434.77 751.63Z" fill="white"/>
<path d="M221.813 167.958C223.538 167.958 224.936 166.56 224.936 164.835C224.936 163.11 223.538 161.712 221.813 161.712C220.088 161.712 218.689 163.11 218.689 164.835C218.689 166.56 220.088 167.958 221.813 167.958Z" fill="white"/>
<path d="M2110.75 427.703C2111.49 427.703 2112.09 427.101 2112.09 426.36C2112.09 425.618 2111.49 425.017 2110.75 425.017C2110.01 425.017 2109.4 425.618 2109.4 426.36C2109.4 427.101 2110.01 427.703 2110.75 427.703Z" fill="white"/>
<path d="M1186.94 734.725C1188.17 734.725 1189.17 733.726 1189.17 732.492C1189.17 731.259 1188.17 730.259 1186.94 730.259C1185.71 730.259 1184.71 731.259 1184.71 732.492C1184.71 733.726 1185.71 734.725 1186.94 734.725Z" fill="white"/>
<path d="M2568.69 311.242C2569.88 311.242 2570.85 310.274 2570.85 309.08C2570.85 307.886 2569.88 306.918 2568.69 306.918C2567.49 306.918 2566.53 307.886 2566.53 309.08C2566.53 310.274 2567.49 311.242 2568.69 311.242Z" fill="white"/>
<path d="M2718.37 658.554C2720.18 658.554 2721.65 657.087 2721.65 655.276C2721.65 653.466 2720.18 651.999 2718.37 651.999C2716.56 651.999 2715.09 653.466 2715.09 655.276C2715.09 657.087 2716.56 658.554 2718.37 658.554Z" fill="white"/>
<path d="M115.52 214.301C117.195 214.301 118.553 212.942 118.553 211.267C118.553 209.591 117.195 208.233 115.52 208.233C113.844 208.233 112.486 209.591 112.486 211.267C112.486 212.942 113.844 214.301 115.52 214.301Z" fill="white"/>
<path d="M3095.59 465.063C3096.51 465.063 3097.26 464.314 3097.26 463.39C3097.26 462.466 3096.51 461.717 3095.59 461.717C3094.66 461.717 3093.91 462.466 3093.91 463.39C3093.91 464.314 3094.66 465.063 3095.59 465.063Z" fill="white"/>
<path d="M1417.49 1316.53C1418.2 1316.53 1418.78 1315.96 1418.78 1315.25C1418.78 1314.53 1418.2 1313.96 1417.49 1313.96C1416.78 1313.96 1416.2 1314.53 1416.2 1315.25C1416.2 1315.96 1416.78 1316.53 1417.49 1316.53Z" fill="white"/>
<path d="M434.452 948.612C436.229 948.612 437.669 947.172 437.669 945.395C437.669 943.619 436.229 942.179 434.452 942.179C432.676 942.179 431.236 943.619 431.236 945.395C431.236 947.172 432.676 948.612 434.452 948.612Z" fill="white"/>
<path d="M1459.57 642.18C1461.3 642.18 1462.7 640.78 1462.7 639.052C1462.7 637.325 1461.3 635.925 1459.57 635.925C1457.84 635.925 1456.44 637.325 1456.44 639.052C1456.44 640.78 1457.84 642.18 1459.57 642.18Z" fill="white"/>
<path d="M2887.34 1163.03C2888.08 1163.03 2888.67 1162.43 2888.67 1161.7C2888.67 1160.96 2888.08 1160.37 2887.34 1160.37C2886.61 1160.37 2886.01 1160.96 2886.01 1161.7C2886.01 1162.43 2886.61 1163.03 2887.34 1163.03Z" fill="white"/>
<path d="M249.845 1398.71C251.544 1398.71 252.921 1397.34 252.921 1395.64C252.921 1393.94 251.544 1392.56 249.845 1392.56C248.146 1392.56 246.768 1393.94 246.768 1395.64C246.768 1397.34 248.146 1398.71 249.845 1398.71Z" fill="white"/>
<path d="M72.533 832.299C74.3289 832.299 75.7849 830.843 75.7849 829.047C75.7849 827.251 74.3289 825.795 72.533 825.795C70.737 825.795 69.281 827.251 69.281 829.047C69.281 830.843 70.737 832.299 72.533 832.299Z" fill="white"/>
<path d="M2980.24 257.085C2982.04 257.085 2983.5 255.626 2983.5 253.827C2983.5 252.027 2982.04 250.568 2980.24 250.568C2978.44 250.568 2976.98 252.027 2976.98 253.827C2976.98 255.626 2978.44 257.085 2980.24 257.085Z" fill="white"/>
<path d="M1258.45 802.25C1259.7 802.25 1260.71 801.239 1260.71 799.991C1260.71 798.743 1259.7 797.731 1258.45 797.731C1257.2 797.731 1256.19 798.743 1256.19 799.991C1256.19 801.239 1257.2 802.25 1258.45 802.25Z" fill="white"/>
<path d="M491.092 136.946C492.255 136.946 493.197 136.003 493.197 134.84C493.197 133.677 492.255 132.735 491.092 132.735C489.929 132.735 488.987 133.677 488.987 134.84C488.987 136.003 489.929 136.946 491.092 136.946Z" fill="white"/>
<path d="M1675.87 355.842C1677.26 355.842 1678.4 354.71 1678.4 353.314C1678.4 351.919 1677.26 350.787 1675.87 350.787C1674.47 350.787 1673.34 351.919 1673.34 353.314C1673.34 354.71 1674.47 355.842 1675.87 355.842Z" fill="white"/>
<path d="M2289.69 460.672C2290.98 460.672 2292.02 459.627 2292.02 458.338C2292.02 457.049 2290.98 456.004 2289.69 456.004C2288.4 456.004 2287.36 457.049 2287.36 458.338C2287.36 459.627 2288.4 460.672 2289.69 460.672Z" fill="white"/>
<path d="M427.508 561.049C429.052 561.049 430.304 559.797 430.304 558.253C430.304 556.708 429.052 555.457 427.508 555.457C425.964 555.457 424.712 556.708 424.712 558.253C424.712 559.797 425.964 561.049 427.508 561.049Z" fill="white"/>
<path d="M2668.46 1332.62C2670.09 1332.62 2671.41 1331.3 2671.41 1329.67C2671.41 1328.04 2670.09 1326.73 2668.46 1326.73C2666.84 1326.73 2665.52 1328.04 2665.52 1329.67C2665.52 1331.3 2666.84 1332.62 2668.46 1332.62Z" fill="white"/>
<path d="M1367.84 902.652C1369.02 902.652 1369.98 901.695 1369.98 900.513C1369.98 899.332 1369.02 898.374 1367.84 898.374C1366.66 898.374 1365.7 899.332 1365.7 900.513C1365.7 901.695 1366.66 902.652 1367.84 902.652Z" fill="white"/>
<path d="M1919.98 94.4926C1921.38 94.4926 1922.5 93.3637 1922.5 91.9711C1922.5 90.5784 1921.38 89.4495 1919.98 89.4495C1918.59 89.4495 1917.46 90.5784 1917.46 91.9711C1917.46 93.3637 1918.59 94.4926 1919.98 94.4926Z" fill="white"/>
<path d="M2628.74 546.9C2630.04 546.9 2631.09 545.848 2631.09 544.549C2631.09 543.251 2630.04 542.198 2628.74 542.198C2627.44 542.198 2626.39 543.251 2626.39 544.549C2626.39 545.848 2627.44 546.9 2628.74 546.9Z" fill="white"/>
<path d="M1625.73 615.367C1626.91 615.367 1627.86 614.416 1627.86 613.241C1627.86 612.067 1626.91 611.115 1625.73 611.115C1624.56 611.115 1623.61 612.067 1623.61 613.241C1623.61 614.416 1624.56 615.367 1625.73 615.367Z" fill="white"/>
<path d="M2902.32 1214.36C2903.93 1214.36 2905.23 1213.05 2905.23 1211.45C2905.23 1209.84 2903.93 1208.53 2902.32 1208.53C2900.71 1208.53 2899.41 1209.84 2899.41 1211.45C2899.41 1213.05 2900.71 1214.36 2902.32 1214.36Z" fill="white"/>
<path d="M771.433 330.864C772.182 330.864 772.79 330.256 772.79 329.506C772.79 328.757 772.182 328.149 771.433 328.149C770.683 328.149 770.076 328.757 770.076 329.506C770.076 330.256 770.683 330.864 771.433 330.864Z" fill="white"/>
<path d="M1368.08 1008.87C1369.22 1008.87 1370.15 1007.95 1370.15 1006.81C1370.15 1005.67 1369.22 1004.74 1368.08 1004.74C1366.94 1004.74 1366.02 1005.67 1366.02 1006.81C1366.02 1007.95 1366.94 1008.87 1368.08 1008.87Z" fill="white"/>
<path d="M2380.7 520.763C2381.87 520.763 2382.81 519.816 2382.81 518.647C2382.81 517.479 2381.87 516.531 2380.7 516.531C2379.53 516.531 2378.58 517.479 2378.58 518.647C2378.58 519.816 2379.53 520.763 2380.7 520.763Z" fill="white"/>
<path d="M1489.28 1212.1C1490.87 1212.1 1492.16 1210.81 1492.16 1209.22C1492.16 1207.62 1490.87 1206.33 1489.28 1206.33C1487.68 1206.33 1486.39 1207.62 1486.39 1209.22C1486.39 1210.81 1487.68 1212.1 1489.28 1212.1Z" fill="white"/>
<path d="M1974.48 335.691C1975.68 335.691 1976.65 334.715 1976.65 333.512C1976.65 332.308 1975.68 331.333 1974.48 331.333C1973.27 331.333 1972.3 332.308 1972.3 333.512C1972.3 334.715 1973.27 335.691 1974.48 335.691Z" fill="white"/>
<path d="M1049.8 691.459C1051.46 691.459 1052.81 690.11 1052.81 688.445C1052.81 686.781 1051.46 685.432 1049.8 685.432C1048.14 685.432 1046.79 686.781 1046.79 688.445C1046.79 690.11 1048.14 691.459 1049.8 691.459Z" fill="white"/>
<path d="M168.095 433.883C168.928 433.883 169.603 433.208 169.603 432.376C169.603 431.543 168.928 430.868 168.095 430.868C167.263 430.868 166.588 431.543 166.588 432.376C166.588 433.208 167.263 433.883 168.095 433.883Z" fill="white"/>
<path d="M2081.33 59.9632C2082.72 59.9632 2083.85 58.8349 2083.85 57.4431C2083.85 56.0513 2082.72 54.923 2081.33 54.923C2079.94 54.923 2078.81 56.0513 2078.81 57.4431C2078.81 58.8349 2079.94 59.9632 2081.33 59.9632Z" fill="white"/>
<path d="M1996.68 1152.21C1998.52 1152.21 2000.02 1150.72 2000.02 1148.88C2000.02 1147.03 1998.52 1145.54 1996.68 1145.54C1994.83 1145.54 1993.34 1147.03 1993.34 1148.88C1993.34 1150.72 1994.83 1152.21 1996.68 1152.21Z" fill="white"/>
<path d="M1000.53 1328.47C1002.25 1328.47 1003.64 1327.08 1003.64 1325.37C1003.64 1323.65 1002.25 1322.26 1000.53 1322.26C998.816 1322.26 997.425 1323.65 997.425 1325.37C997.425 1327.08 998.816 1328.47 1000.53 1328.47Z" fill="white"/>
<path d="M661.545 241.381C663.402 241.381 664.908 239.876 664.908 238.019C664.908 236.162 663.402 234.656 661.545 234.656C659.688 234.656 658.182 236.162 658.182 238.019C658.182 239.876 659.688 241.381 661.545 241.381Z" fill="white"/>
<path d="M932.584 987.242C933.885 987.242 934.94 986.187 934.94 984.886C934.94 983.585 933.885 982.531 932.584 982.531C931.283 982.531 930.229 983.585 930.229 984.886C930.229 986.187 931.283 987.242 932.584 987.242Z" fill="white"/>
<path d="M2425.29 705.729C2426.98 705.729 2428.35 704.358 2428.35 702.668C2428.35 700.978 2426.98 699.608 2425.29 699.608C2423.59 699.608 2422.22 700.978 2422.22 702.668C2422.22 704.358 2423.59 705.729 2425.29 705.729Z" fill="white"/>
<path d="M39.6798 1374.84C41.1818 1374.84 42.3994 1373.62 42.3994 1372.12C42.3994 1370.62 41.1818 1369.4 39.6798 1369.4C38.1779 1369.4 36.9604 1370.62 36.9604 1372.12C36.9604 1373.62 38.1779 1374.84 39.6798 1374.84Z" fill="white"/>
<path d="M2771.12 555.49C2772.42 555.49 2773.48 554.435 2773.48 553.133C2773.48 551.831 2772.42 550.775 2771.12 550.775C2769.82 550.775 2768.76 551.831 2768.76 553.133C2768.76 554.435 2769.82 555.49 2771.12 555.49Z" fill="white"/>
<path d="M1331.2 24.1222C1332.18 24.1222 1332.98 23.3239 1332.98 22.3392C1332.98 21.3544 1332.18 20.5562 1331.2 20.5562C1330.21 20.5562 1329.41 21.3544 1329.41 22.3392C1329.41 23.3239 1330.21 24.1222 1331.2 24.1222Z" fill="white"/>
<path d="M1752.85 119.231C1754.14 119.231 1755.18 118.187 1755.18 116.899C1755.18 115.611 1754.14 114.567 1752.85 114.567C1751.56 114.567 1750.52 115.611 1750.52 116.899C1750.52 118.187 1751.56 119.231 1752.85 119.231Z" fill="white"/>
<path d="M2207.26 362.094C2207.98 362.094 2208.56 361.511 2208.56 360.792C2208.56 360.072 2207.98 359.489 2207.26 359.489C2206.54 359.489 2205.96 360.072 2205.96 360.792C2205.96 361.511 2206.54 362.094 2207.26 362.094Z" fill="white"/>
<path d="M607.145 464.388C608.224 464.388 609.099 463.513 609.099 462.434C609.099 461.355 608.224 460.481 607.145 460.481C606.066 460.481 605.192 461.355 605.192 462.434C605.192 463.513 606.066 464.388 607.145 464.388Z" fill="white"/>
<path d="M2299.21 401.374C2300.21 401.374 2301.03 400.559 2301.03 399.554C2301.03 398.549 2300.21 397.734 2299.21 397.734C2298.2 397.734 2297.39 398.549 2297.39 399.554C2297.39 400.559 2298.2 401.374 2299.21 401.374Z" fill="white"/>
<path d="M2191.42 1318.96C2192.91 1318.96 2194.11 1317.75 2194.11 1316.27C2194.11 1314.78 2192.91 1313.57 2191.42 1313.57C2189.93 1313.57 2188.73 1314.78 2188.73 1316.27C2188.73 1317.75 2189.93 1318.96 2191.42 1318.96Z" fill="white"/>
<path d="M426.25 1326.8C428.15 1326.8 429.691 1325.26 429.691 1323.36C429.691 1321.46 428.15 1319.92 426.25 1319.92C424.349 1319.92 422.808 1321.46 422.808 1323.36C422.808 1325.26 424.349 1326.8 426.25 1326.8Z" fill="white"/>
<path d="M3000.43 659.472C3001.98 659.472 3003.24 658.215 3003.24 656.663C3003.24 655.111 3001.98 653.854 3000.43 653.854C2998.88 653.854 2997.62 655.111 2997.62 656.663C2997.62 658.215 2998.88 659.472 3000.43 659.472Z" fill="white"/>
<path d="M2165.53 208.519C2166.43 208.519 2167.16 207.791 2167.16 206.893C2167.16 205.996 2166.43 205.268 2165.53 205.268C2164.63 205.268 2163.91 205.996 2163.91 206.893C2163.91 207.791 2164.63 208.519 2165.53 208.519Z" fill="white"/>
<path d="M2999.2 1344.93C3000.96 1344.93 3002.4 1343.5 3002.4 1341.73C3002.4 1339.97 3000.96 1338.53 2999.2 1338.53C2997.43 1338.53 2996 1339.97 2996 1341.73C2996 1343.5 2997.43 1344.93 2999.2 1344.93Z" fill="white"/>
<path d="M2891.94 1305.88C2892.68 1305.88 2893.29 1305.28 2893.29 1304.53C2893.29 1303.79 2892.68 1303.18 2891.94 1303.18C2891.2 1303.18 2890.59 1303.79 2890.59 1304.53C2890.59 1305.28 2891.2 1305.88 2891.94 1305.88Z" fill="white"/>
<path d="M439.903 452.276C441.427 452.276 442.662 451.041 442.662 449.517C442.662 447.993 441.427 446.758 439.903 446.758C438.379 446.758 437.144 447.993 437.144 449.517C437.144 451.041 438.379 452.276 439.903 452.276Z" fill="white"/>
<path d="M185.866 577.628C186.67 577.628 187.322 576.977 187.322 576.173C187.322 575.369 186.67 574.717 185.866 574.717C185.062 574.717 184.411 575.369 184.411 576.173C184.411 576.977 185.062 577.628 185.866 577.628Z" fill="white"/>
<path d="M1898.13 637.013C1899.82 637.013 1901.19 635.644 1901.19 633.954C1901.19 632.264 1899.82 630.894 1898.13 630.894C1896.44 630.894 1895.07 632.264 1895.07 633.954C1895.07 635.644 1896.44 637.013 1898.13 637.013Z" fill="white"/>
<path d="M2575.35 390.493C2577.08 390.493 2578.48 389.091 2578.48 387.362C2578.48 385.633 2577.08 384.232 2575.35 384.232C2573.62 384.232 2572.22 385.633 2572.22 387.362C2572.22 389.091 2573.62 390.493 2575.35 390.493Z" fill="white"/>
<path d="M1517.33 1129.77C1518.26 1129.77 1519.01 1129.01 1519.01 1128.08C1519.01 1127.15 1518.26 1126.4 1517.33 1126.4C1516.4 1126.4 1515.64 1127.15 1515.64 1128.08C1515.64 1129.01 1516.4 1129.77 1517.33 1129.77Z" fill="white"/>
<path d="M2804.64 208.104C2805.38 208.104 2805.97 207.509 2805.97 206.776C2805.97 206.043 2805.38 205.448 2804.64 205.448C2803.91 205.448 2803.32 206.043 2803.32 206.776C2803.32 207.509 2803.91 208.104 2804.64 208.104Z" fill="white"/>
<path d="M2431 660.388C2432.57 660.388 2433.84 659.117 2433.84 657.548C2433.84 655.98 2432.57 654.709 2431 654.709C2429.43 654.709 2428.16 655.98 2428.16 657.548C2428.16 659.117 2429.43 660.388 2431 660.388Z" fill="white"/>
<path d="M1194.77 845.985C1195.93 845.985 1196.87 845.044 1196.87 843.884C1196.87 842.724 1195.93 841.783 1194.77 841.783C1193.61 841.783 1192.67 842.724 1192.67 843.884C1192.67 845.044 1193.61 845.985 1194.77 845.985Z" fill="white"/>
<path d="M1473.49 851.261C1475.33 851.261 1476.83 849.766 1476.83 847.921C1476.83 846.077 1475.33 844.581 1473.49 844.581C1471.65 844.581 1470.15 846.077 1470.15 847.921C1470.15 849.766 1471.65 851.261 1473.49 851.261Z" fill="white"/>
<path d="M553.279 417.285C554.293 417.285 555.116 416.462 555.116 415.448C555.116 414.433 554.293 413.61 553.279 413.61C552.264 413.61 551.441 414.433 551.441 415.448C551.441 416.462 552.264 417.285 553.279 417.285Z" fill="white"/>
<path d="M157.546 1288.52C159.072 1288.52 160.309 1287.29 160.309 1285.76C160.309 1284.23 159.072 1283 157.546 1283C156.02 1283 154.783 1284.23 154.783 1285.76C154.783 1287.29 156.02 1288.52 157.546 1288.52Z" fill="white"/>
<path d="M2078.05 330.277C2079.69 330.277 2081.02 328.948 2081.02 327.309C2081.02 325.67 2079.69 324.342 2078.05 324.342C2076.41 324.342 2075.09 325.67 2075.09 327.309C2075.09 328.948 2076.41 330.277 2078.05 330.277Z" fill="white"/>
<path d="M1745.16 1365.97C1745.96 1365.97 1746.6 1365.32 1746.6 1364.52C1746.6 1363.72 1745.96 1363.08 1745.16 1363.08C1744.36 1363.08 1743.71 1363.72 1743.71 1364.52C1743.71 1365.32 1744.36 1365.97 1745.16 1365.97Z" fill="white"/>
<path d="M811.753 1132.73C813.037 1132.73 814.078 1131.68 814.078 1130.4C814.078 1129.12 813.037 1128.08 811.753 1128.08C810.469 1128.08 809.428 1129.12 809.428 1130.4C809.428 1131.68 810.469 1132.73 811.753 1132.73Z" fill="white"/>
<path d="M16.642 200.19C18.3225 200.19 19.6849 198.828 19.6849 197.147C19.6849 195.467 18.3225 194.104 16.642 194.104C14.9615 194.104 13.5991 195.467 13.5991 197.147C13.5991 198.828 14.9615 200.19 16.642 200.19Z" fill="white"/>
<path d="M2167.03 668.016C2167.74 668.016 2168.31 667.446 2168.31 666.743C2168.31 666.04 2167.74 665.47 2167.03 665.47C2166.33 665.47 2165.76 666.04 2165.76 666.743C2165.76 667.446 2166.33 668.016 2167.03 668.016Z" fill="white"/>
<path d="M1741.97 1100.11C1742.77 1100.11 1743.41 1099.47 1743.41 1098.67C1743.41 1097.87 1742.77 1097.22 1741.97 1097.22C1741.17 1097.22 1740.52 1097.87 1740.52 1098.67C1740.52 1099.47 1741.17 1100.11 1741.97 1100.11Z" fill="white"/>
<path d="M1043.63 484.439C1045.44 484.439 1046.91 482.973 1046.91 481.165C1046.91 479.357 1045.44 477.891 1043.63 477.891C1041.83 477.891 1040.36 479.357 1040.36 481.165C1040.36 482.973 1041.83 484.439 1043.63 484.439Z" fill="white"/>
<path d="M3108.42 316.669C3109.21 316.669 3109.84 316.032 3109.84 315.245C3109.84 314.459 3109.21 313.821 3108.42 313.821C3107.63 313.821 3107 314.459 3107 315.245C3107 316.032 3107.63 316.669 3108.42 316.669Z" fill="white"/>
<path d="M949.406 741.836C950.584 741.836 951.539 740.881 951.539 739.703C951.539 738.525 950.584 737.57 949.406 737.57C948.228 737.57 947.273 738.525 947.273 739.703C947.273 740.881 948.228 741.836 949.406 741.836Z" fill="white"/>
<path d="M331.668 1048.64C333.363 1048.64 334.736 1047.26 334.736 1045.57C334.736 1043.87 333.363 1042.5 331.668 1042.5C329.974 1042.5 328.601 1043.87 328.601 1045.57C328.601 1047.26 329.974 1048.64 331.668 1048.64Z" fill="white"/>
<path d="M1425.2 1208.16C1426.94 1208.16 1428.34 1206.75 1428.34 1205.01C1428.34 1203.28 1426.94 1201.87 1425.2 1201.87C1423.47 1201.87 1422.06 1203.28 1422.06 1205.01C1422.06 1206.75 1423.47 1208.16 1425.2 1208.16Z" fill="white"/>
<path d="M2838.77 141.322C2840.21 141.322 2841.37 140.155 2841.37 138.717C2841.37 137.278 2840.21 136.111 2838.77 136.111C2837.33 136.111 2836.16 137.278 2836.16 138.717C2836.16 140.155 2837.33 141.322 2838.77 141.322Z" fill="white"/>
<path d="M1888.84 112.779C1890.06 112.779 1891.05 111.789 1891.05 110.568C1891.05 109.347 1890.06 108.358 1888.84 108.358C1887.62 108.358 1886.63 109.347 1886.63 110.568C1886.63 111.789 1887.62 112.779 1888.84 112.779Z" fill="white"/>
<path d="M946.969 273.205C948.051 273.205 948.929 272.328 948.929 271.245C948.929 270.163 948.051 269.285 946.969 269.285C945.886 269.285 945.009 270.163 945.009 271.245C945.009 272.328 945.886 273.205 946.969 273.205Z" fill="white"/>
<path d="M3091.8 615.154C3093.56 615.154 3094.99 613.724 3094.99 611.959C3094.99 610.195 3093.56 608.764 3091.8 608.764C3090.03 608.764 3088.6 610.195 3088.6 611.959C3088.6 613.724 3090.03 615.154 3091.8 615.154Z" fill="white"/>
<path d="M27.3597 1107.26C29.0539 1107.26 30.4272 1105.89 30.4272 1104.19C30.4272 1102.5 29.0539 1101.13 27.3597 1101.13C25.6656 1101.13 24.2922 1102.5 24.2922 1104.19C24.2922 1105.89 25.6656 1107.26 27.3597 1107.26Z" fill="white"/>
<path d="M1223.97 1144.59C1225.21 1144.59 1226.23 1143.58 1226.23 1142.33C1226.23 1141.08 1225.21 1140.06 1223.97 1140.06C1222.72 1140.06 1221.7 1141.08 1221.7 1142.33C1221.7 1143.58 1222.72 1144.59 1223.97 1144.59Z" fill="white"/>
<path d="M3008.93 623.758C3009.89 623.758 3010.67 622.979 3010.67 622.018C3010.67 621.057 3009.89 620.277 3008.93 620.277C3007.97 620.277 3007.19 621.057 3007.19 622.018C3007.19 622.979 3007.97 623.758 3008.93 623.758Z" fill="white"/>
<path d="M1732.31 472.518C1733.4 472.518 1734.29 471.628 1734.29 470.53C1734.29 469.432 1733.4 468.542 1732.31 468.542C1731.21 468.542 1730.32 469.432 1730.32 470.53C1730.32 471.628 1731.21 472.518 1732.31 472.518Z" fill="white"/>
<path d="M325.556 1040.36C327.269 1040.36 328.657 1038.97 328.657 1037.26C328.657 1035.55 327.269 1034.16 325.556 1034.16C323.844 1034.16 322.456 1035.55 322.456 1037.26C322.456 1038.97 323.844 1040.36 325.556 1040.36Z" fill="white"/>
<path d="M2686.81 1095.1C2688.13 1095.1 2689.2 1094.03 2689.2 1092.72C2689.2 1091.4 2688.13 1090.33 2686.81 1090.33C2685.49 1090.33 2684.42 1091.4 2684.42 1092.72C2684.42 1094.03 2685.49 1095.1 2686.81 1095.1Z" fill="white"/>
<path d="M2965.47 712.343C2966.18 712.343 2966.76 711.765 2966.76 711.052C2966.76 710.34 2966.18 709.762 2965.47 709.762C2964.75 709.762 2964.17 710.34 2964.17 711.052C2964.17 711.765 2964.75 712.343 2965.47 712.343Z" fill="white"/>
<path d="M474.1 766.187C475.137 766.187 475.977 765.346 475.977 764.31C475.977 763.273 475.137 762.433 474.1 762.433C473.063 762.433 472.223 763.273 472.223 764.31C472.223 765.346 473.063 766.187 474.1 766.187Z" fill="white"/>
<path d="M1272.09 1115.23C1273.08 1115.23 1273.88 1114.44 1273.88 1113.45C1273.88 1112.47 1273.08 1111.67 1272.09 1111.67C1271.11 1111.67 1270.31 1112.47 1270.31 1113.45C1270.31 1114.44 1271.11 1115.23 1272.09 1115.23Z" fill="white"/>
<path d="M963.038 1142.69C963.923 1142.69 964.64 1141.97 964.64 1141.09C964.64 1140.2 963.923 1139.49 963.038 1139.49C962.153 1139.49 961.435 1140.2 961.435 1141.09C961.435 1141.97 962.153 1142.69 963.038 1142.69Z" fill="white"/>
<path d="M1911.15 487.792C1912.31 487.792 1913.24 486.856 1913.24 485.702C1913.24 484.548 1912.31 483.613 1911.15 483.613C1910 483.613 1909.06 484.548 1909.06 485.702C1909.06 486.856 1910 487.792 1911.15 487.792Z" fill="white"/>
<path d="M2713.87 1279.52C2715.37 1279.52 2716.59 1278.3 2716.59 1276.8C2716.59 1275.3 2715.37 1274.08 2713.87 1274.08C2712.37 1274.08 2711.15 1275.3 2711.15 1276.8C2711.15 1278.3 2712.37 1279.52 2713.87 1279.52Z" fill="white"/>
<path d="M1106.63 1332.64C1107.85 1332.64 1108.83 1331.66 1108.83 1330.44C1108.83 1329.23 1107.85 1328.24 1106.63 1328.24C1105.42 1328.24 1104.43 1329.23 1104.43 1330.44C1104.43 1331.66 1105.42 1332.64 1106.63 1332.64Z" fill="white"/>
<path d="M1642.45 1346.62C1643.87 1346.62 1645.02 1345.46 1645.02 1344.04C1645.02 1342.62 1643.87 1341.47 1642.45 1341.47C1641.03 1341.47 1639.87 1342.62 1639.87 1344.04C1639.87 1345.46 1641.03 1346.62 1642.45 1346.62Z" fill="white"/>
<path d="M2519.52 881.43C2521.09 881.43 2522.36 880.161 2522.36 878.594C2522.36 877.028 2521.09 875.759 2519.52 875.759C2517.95 875.759 2516.68 877.028 2516.68 878.594C2516.68 880.161 2517.95 881.43 2519.52 881.43Z" fill="white"/>
<path d="M199.647 1387.65C200.357 1387.65 200.933 1387.08 200.933 1386.37C200.933 1385.66 200.357 1385.08 199.647 1385.08C198.938 1385.08 198.362 1385.66 198.362 1386.37C198.362 1387.08 198.938 1387.65 199.647 1387.65Z" fill="white"/>
<path d="M997.971 812.088C999.067 812.088 999.956 811.199 999.956 810.103C999.956 809.006 999.067 808.117 997.971 808.117C996.874 808.117 995.985 809.006 995.985 810.103C995.985 811.199 996.874 812.088 997.971 812.088Z" fill="white"/>
<path d="M1221.65 965.785C1223.16 965.785 1224.39 964.56 1224.39 963.048C1224.39 961.537 1223.16 960.312 1221.65 960.312C1220.14 960.312 1218.91 961.537 1218.91 963.048C1218.91 964.56 1220.14 965.785 1221.65 965.785Z" fill="white"/>
<path d="M2158.89 346.136C2160.37 346.136 2161.57 344.932 2161.57 343.448C2161.57 341.963 2160.37 340.759 2158.89 340.759C2157.4 340.759 2156.2 341.963 2156.2 343.448C2156.2 344.932 2157.4 346.136 2158.89 346.136Z" fill="white"/>
<path d="M1758.5 559.177C1759.9 559.177 1761.04 558.037 1761.04 556.631C1761.04 555.226 1759.9 554.086 1758.5 554.086C1757.09 554.086 1755.95 555.226 1755.95 556.631C1755.95 558.037 1757.09 559.177 1758.5 559.177Z" fill="white"/>
<path d="M2830.54 677.073C2831.97 677.073 2833.13 675.915 2833.13 674.487C2833.13 673.059 2831.97 671.901 2830.54 671.901C2829.11 671.901 2827.96 673.059 2827.96 674.487C2827.96 675.915 2829.11 677.073 2830.54 677.073Z" fill="white"/>
<path d="M2450.49 1136.67C2451.68 1136.67 2452.65 1135.7 2452.65 1134.51C2452.65 1133.31 2451.68 1132.35 2450.49 1132.35C2449.3 1132.35 2448.33 1133.31 2448.33 1134.51C2448.33 1135.7 2449.3 1136.67 2450.49 1136.67Z" fill="white"/>
<path d="M449.172 209.669C450.605 209.669 451.767 208.508 451.767 207.075C451.767 205.642 450.605 204.48 449.172 204.48C447.739 204.48 446.578 205.642 446.578 207.075C446.578 208.508 447.739 209.669 449.172 209.669Z" fill="white"/>
<path d="M438.399 95.5618C440.105 95.5618 441.488 94.1786 441.488 92.4723C441.488 90.766 440.105 89.3828 438.399 89.3828C436.693 89.3828 435.309 90.766 435.309 92.4723C435.309 94.1786 436.693 95.5618 438.399 95.5618Z" fill="white"/>
<path d="M2664.95 946.716C2665.6 946.716 2666.13 946.188 2666.13 945.537C2666.13 944.886 2665.6 944.358 2664.95 944.358C2664.3 944.358 2663.77 944.886 2663.77 945.537C2663.77 946.188 2664.3 946.716 2664.95 946.716Z" fill="white"/>
<path d="M445.439 1166.41C447.307 1166.41 448.821 1164.89 448.821 1163.03C448.821 1161.16 447.307 1159.64 445.439 1159.64C443.571 1159.64 442.057 1161.16 442.057 1163.03C442.057 1164.89 443.571 1166.41 445.439 1166.41Z" fill="white"/>
<path d="M904.958 1394.03C906.41 1394.03 907.587 1392.85 907.587 1391.4C907.587 1389.95 906.41 1388.77 904.958 1388.77C903.506 1388.77 902.328 1389.95 902.328 1391.4C902.328 1392.85 903.506 1394.03 904.958 1394.03Z" fill="white"/>
<path d="M1287.89 377.924C1289.04 377.924 1289.97 376.992 1289.97 375.842C1289.97 374.693 1289.04 373.761 1287.89 373.761C1286.74 373.761 1285.81 374.693 1285.81 375.842C1285.81 376.992 1286.74 377.924 1287.89 377.924Z" fill="white"/>
<path d="M1070.18 441.769C1070.99 441.769 1071.64 441.117 1071.64 440.312C1071.64 439.507 1070.99 438.854 1070.18 438.854C1069.38 438.854 1068.73 439.507 1068.73 440.312C1068.73 441.117 1069.38 441.769 1070.18 441.769Z" fill="white"/>
<path d="M189.333 65.7738C190.393 65.7738 191.253 64.9142 191.253 63.8538C191.253 62.7934 190.393 61.9338 189.333 61.9338C188.272 61.9338 187.413 62.7934 187.413 63.8538C187.413 64.9142 188.272 65.7738 189.333 65.7738Z" fill="white"/>
<path d="M1021.77 1540.63C1023.05 1540.63 1024.09 1539.59 1024.09 1538.3C1024.09 1537.02 1023.05 1535.98 1021.77 1535.98C1020.49 1535.98 1019.45 1537.02 1019.45 1538.3C1019.45 1539.59 1020.49 1540.63 1021.77 1540.63Z" fill="white" fill-opacity="0.67857"/>
<path d="M1599.94 1561.21C1601.23 1561.21 1602.26 1560.17 1602.26 1558.89C1602.26 1557.61 1601.23 1556.57 1599.94 1556.57C1598.66 1556.57 1597.62 1557.61 1597.62 1558.89C1597.62 1560.17 1598.66 1561.21 1599.94 1561.21Z" fill="white" fill-opacity="0.67857"/>
<path d="M2017.86 1582.9C2019.14 1582.9 2020.18 1581.86 2020.18 1580.58C2020.18 1579.29 2019.14 1578.25 2017.86 1578.25C2016.58 1578.25 2015.54 1579.29 2015.54 1580.58C2015.54 1581.86 2016.58 1582.9 2017.86 1582.9Z" fill="white" fill-opacity="0.67857"/>
<path d="M395.156 1571.64C396.439 1571.64 397.478 1570.6 397.478 1569.32C397.478 1568.04 396.439 1567 395.156 1567C393.874 1567 392.835 1568.04 392.835 1569.32C392.835 1570.6 393.874 1571.64 395.156 1571.64Z" fill="white"/>
<path d="M1535.15 1688.48C1536.44 1688.48 1537.48 1687.44 1537.48 1686.15C1537.48 1684.87 1536.44 1683.83 1535.15 1683.83C1533.87 1683.83 1532.83 1684.87 1532.83 1686.15C1532.83 1687.44 1533.87 1688.48 1535.15 1688.48Z" fill="white" fill-opacity="0.67857"/>
<path d="M1772.43 1634C1775 1634 1777.08 1631.92 1777.08 1629.35C1777.08 1626.79 1775 1624.71 1772.43 1624.71C1769.87 1624.71 1767.79 1626.79 1767.79 1629.35C1767.79 1631.92 1769.87 1634 1772.43 1634Z" fill="white" fill-opacity="0.67857"/>
<path d="M2555.13 1700.64C2556.79 1700.64 2558.14 1699.29 2558.14 1697.63C2558.14 1695.97 2556.79 1694.63 2555.13 1694.63C2553.47 1694.63 2552.12 1695.97 2552.12 1697.63C2552.12 1699.29 2553.47 1700.64 2555.13 1700.64Z" fill="white" fill-opacity="0.67857"/>
<path d="M2894.47 1625C2896.33 1625 2897.85 1623.49 2897.85 1621.62C2897.85 1619.75 2896.33 1618.24 2894.47 1618.24C2892.6 1618.24 2891.09 1619.75 2891.09 1621.62C2891.09 1623.49 2892.6 1625 2894.47 1625Z" fill="white"/>
<path d="M1103.25 1664.38C1104.56 1664.38 1105.63 1663.32 1105.63 1662C1105.63 1660.69 1104.56 1659.63 1103.25 1659.63C1101.94 1659.63 1100.88 1660.69 1100.88 1662C1100.88 1663.32 1101.94 1664.38 1103.25 1664.38Z" fill="white" fill-opacity="0.67857"/>
<path d="M228.703 1702.35C230.485 1702.35 231.93 1700.9 231.93 1699.12C231.93 1697.34 230.485 1695.89 228.703 1695.89C226.921 1695.89 225.476 1697.34 225.476 1699.12C225.476 1700.9 226.921 1702.35 228.703 1702.35Z" fill="white"/>
<path d="M1746.83 1595.71C1747.56 1595.71 1748.15 1595.12 1748.15 1594.39C1748.15 1593.66 1747.56 1593.07 1746.83 1593.07C1746.1 1593.07 1745.51 1593.66 1745.51 1594.39C1745.51 1595.12 1746.1 1595.71 1746.83 1595.71Z" fill="white" fill-opacity="0.67857"/>
<path d="M554.463 1614.65C556.158 1614.65 557.533 1613.28 557.533 1611.58C557.533 1609.89 556.158 1608.51 554.463 1608.51C552.767 1608.51 551.392 1609.89 551.392 1611.58C551.392 1613.28 552.767 1614.65 554.463 1614.65Z" fill="white" fill-opacity="0.67857"/>
<path d="M2935.64 1697.11C2936.38 1697.11 2936.97 1696.51 2936.97 1695.78C2936.97 1695.04 2936.38 1694.44 2935.64 1694.44C2934.91 1694.44 2934.31 1695.04 2934.31 1695.78C2934.31 1696.51 2934.91 1697.11 2935.64 1697.11Z" fill="white"/>
<path d="M1416.38 1542.94C1417.52 1542.94 1418.45 1542.02 1418.45 1540.87C1418.45 1539.73 1417.52 1538.81 1416.38 1538.81C1415.24 1538.81 1414.31 1539.73 1414.31 1540.87C1414.31 1542.02 1415.24 1542.94 1416.38 1542.94Z" fill="white" fill-opacity="0.67857"/>
<path d="M2044.97 1686.26C2046.81 1686.26 2048.3 1684.77 2048.3 1682.92C2048.3 1681.08 2046.81 1679.58 2044.97 1679.58C2043.12 1679.58 2041.63 1681.08 2041.63 1682.92C2041.63 1684.77 2043.12 1686.26 2044.97 1686.26Z" fill="white" fill-opacity="0.67857"/>
<path d="M980.904 1521.28C982.205 1521.28 983.26 1520.22 983.26 1518.92C983.26 1517.62 982.205 1516.57 980.904 1516.57C979.603 1516.57 978.549 1517.62 978.549 1518.92C978.549 1520.22 979.603 1521.28 980.904 1521.28Z" fill="white" fill-opacity="0.67857"/>
<path d="M1565.65 1663.82C1566.58 1663.82 1567.33 1663.06 1567.33 1662.13C1567.33 1661.2 1566.58 1660.45 1565.65 1660.45C1564.72 1660.45 1563.96 1661.2 1563.96 1662.13C1563.96 1663.06 1564.72 1663.82 1565.65 1663.82Z" fill="white" fill-opacity="0.67857"/>
<path d="M860.051 1666.79C861.335 1666.79 862.376 1665.75 862.376 1664.47C862.376 1663.18 861.335 1662.14 860.051 1662.14C858.767 1662.14 857.726 1663.18 857.726 1664.47C857.726 1665.75 858.767 1666.79 860.051 1666.79Z" fill="white" fill-opacity="0.67857"/>
<path d="M1790.29 1634.14C1791.09 1634.14 1791.73 1633.49 1791.73 1632.69C1791.73 1631.89 1791.09 1631.25 1790.29 1631.25C1789.49 1631.25 1788.84 1631.89 1788.84 1632.69C1788.84 1633.49 1789.49 1634.14 1790.29 1634.14Z" fill="white" fill-opacity="0.67857"/>
<path d="M379.956 1582.69C381.651 1582.69 383.024 1581.32 383.024 1579.63C383.024 1577.93 381.651 1576.56 379.956 1576.56C378.262 1576.56 376.889 1577.93 376.889 1579.63C376.889 1581.32 378.262 1582.69 379.956 1582.69Z" fill="white"/>
<path d="M75.6798 1641.36C77.374 1641.36 78.7473 1639.99 78.7473 1638.29C78.7473 1636.6 77.374 1635.23 75.6798 1635.23C73.9857 1635.23 72.6123 1636.6 72.6123 1638.29C72.6123 1639.99 73.9857 1641.36 75.6798 1641.36Z" fill="white"/>
<path d="M1272.26 1678.67C1273.51 1678.67 1274.53 1677.65 1274.53 1676.4C1274.53 1675.15 1273.51 1674.14 1272.26 1674.14C1271.01 1674.14 1270 1675.15 1270 1676.4C1270 1677.65 1271.01 1678.67 1272.26 1678.67Z" fill="white" fill-opacity="0.67857"/>
<path d="M2735.11 1629.15C2736.43 1629.15 2737.49 1628.08 2737.49 1626.76C2737.49 1625.44 2736.43 1624.38 2735.11 1624.38C2733.79 1624.38 2732.72 1625.44 2732.72 1626.76C2732.72 1628.08 2733.79 1629.15 2735.11 1629.15Z" fill="white" fill-opacity="0.67857"/>
<path d="M1320.38 1649.33C1321.37 1649.33 1322.16 1648.54 1322.16 1647.55C1322.16 1646.57 1321.37 1645.77 1320.38 1645.77C1319.4 1645.77 1318.6 1646.57 1318.6 1647.55C1318.6 1648.54 1319.4 1649.33 1320.38 1649.33Z" fill="white" fill-opacity="0.67857"/>
<path d="M1011.34 1676.8C1012.22 1676.8 1012.94 1676.08 1012.94 1675.2C1012.94 1674.31 1012.22 1673.6 1011.34 1673.6C1010.45 1673.6 1009.73 1674.31 1009.73 1675.2C1009.73 1676.08 1010.45 1676.8 1011.34 1676.8Z" fill="white" fill-opacity="0.67857"/>
<path d="M2498.78 1670.72C2499.97 1670.72 2500.94 1669.76 2500.94 1668.56C2500.94 1667.37 2499.97 1666.41 2498.78 1666.41C2497.59 1666.41 2496.62 1667.37 2496.62 1668.56C2496.62 1669.76 2497.59 1670.72 2498.78 1670.72Z" fill="white" fill-opacity="0.67857"/>
<path d="M493.759 1700.46C495.626 1700.46 497.141 1698.94 497.141 1697.07C497.141 1695.21 495.626 1693.69 493.759 1693.69C491.891 1693.69 490.377 1695.21 490.377 1697.07C490.377 1698.94 491.891 1700.46 493.759 1700.46Z" fill="white"/>
</svg>
