<svg xmlns="http://www.w3.org/2000/svg" version="1.1" xmlns:xlink="http://www.w3.org/1999/xlink" width="1000" height="1000"><g clip-path="url(#SvgjsClipPath1075)"><rect width="1000" height="1000" fill="#338866"></rect><g transform="matrix(4.72972972972973,0,0,4.72972972972973,150,150)"><svg xmlns="http://www.w3.org/2000/svg" version="1.1" xmlns:xlink="http://www.w3.org/1999/xlink" width="148" height="148"><svg width="148" height="148" viewBox="0 0 148 148" fill="none" xmlns="http://www.w3.org/2000/svg">
<path d="M104.833 86.3333L123.333 106.683C124.178 107.545 124.752 108.636 124.983 109.821C125.214 111.006 125.092 112.232 124.632 113.349C124.173 114.465 123.396 115.421 122.397 116.1C121.399 116.779 120.224 117.15 119.017 117.167H28.9833C27.7764 117.15 26.6009 116.779 25.6027 116.1C24.6045 115.421 23.8274 114.465 23.3678 113.349C22.9082 112.232 22.7863 111.006 23.0172 109.821C23.248 108.636 23.8216 107.545 24.6667 106.683L43.1667 86.3333H41.3167C40.1097 86.3164 38.9342 85.9456 37.936 85.2669C36.9378 84.5882 36.1607 83.6314 35.7011 82.5152C35.2415 81.3991 35.1196 80.1725 35.3505 78.9877C35.5814 77.8029 36.1549 76.7119 37 75.85L55.5 55.5H54.2667C53.0071 55.6136 51.7431 55.3372 50.6459 54.7083C49.5487 54.0794 48.6714 53.1283 48.1329 51.984C47.5944 50.8397 47.4208 49.5575 47.6355 48.3112C47.8502 47.0649 48.443 45.9148 49.3333 45.0167L74 18.5L98.6667 45.0167C99.5571 45.9148 100.15 47.0649 100.365 48.3112C100.579 49.5575 100.406 50.8397 99.8671 51.984C99.3286 53.1283 98.4513 54.0794 97.3541 54.7083C96.2569 55.3372 94.9929 55.6136 93.7333 55.5H92.5L111 75.85C111.845 76.7119 112.419 77.8029 112.65 78.9877C112.88 80.1725 112.759 81.3991 112.299 82.5152C111.839 83.6314 111.062 84.5882 110.064 85.2669C109.066 85.9456 107.89 86.3164 106.683 86.3333H104.833Z" fill="white"></path>
<path d="M74 135.667V117.167" stroke="white" stroke-width="9" stroke-linecap="square" stroke-linejoin="round"></path>
</svg></svg></g></g><defs><clipPath id="SvgjsClipPath1075"><rect width="1000" height="1000" x="0" y="0" rx="300" ry="300"></rect></clipPath></defs></svg>