<svg xmlns="http://www.w3.org/2000/svg" version="1.1" xmlns:xlink="http://www.w3.org/1999/xlink" width="451" height="413"><svg width="451" height="413" viewBox="0 0 451 413" fill="none" xmlns="http://www.w3.org/2000/svg">
<path d="M225 335C342.084 335 437 352.461 437 374C437 395.539 342.084 413 225 413C107.916 413 13 395.539 13 374C13 352.461 107.916 335 225 335Z" fill="#338866"></path>
<path d="M156.012 40C186.804 -13.3333 263.784 -13.3333 294.576 40L439.751 291.45C458.365 323.691 451.659 360.802 429.84 385.115L258.328 83.457C243.759 57.8329 206.829 57.8329 192.26 83.457L20.7471 385.115C-1.07163 360.802 -7.77725 323.691 10.8369 291.45L156.012 40Z" fill="#338866"></path>
<line x1="225" y1="22" x2="225" y2="407" stroke="#338866" stroke-width="40"></line>
</svg><style>@media (prefers-color-scheme: light) { :root { filter: none; } }
@media (prefers-color-scheme: dark) { :root { filter: none; } }
</style></svg>