<svg width="2326" height="530" viewBox="0 0 2326 530" fill="none" xmlns="http://www.w3.org/2000/svg">
<mask id="path-1-outside-1_11_69" maskUnits="userSpaceOnUse" x="573" y="89" width="1655" height="441" fill="black">
<rect fill="white" x="573" y="89" width="1655" height="441"/>
<path d="M722.358 190.545V241.682H574.541V190.545H722.358ZM608.1 131.739H676.175V360.574C676.175 366.859 677.134 371.76 679.051 375.276C680.969 378.685 683.632 381.082 687.041 382.467C690.557 383.852 694.605 384.544 699.186 384.544C702.382 384.544 705.578 384.278 708.774 383.745C711.97 383.106 714.421 382.626 716.125 382.307L726.832 432.964C723.423 434.029 718.629 435.254 712.45 436.639C706.271 438.131 698.76 439.036 689.918 439.356C673.512 439.995 659.13 437.811 646.772 432.804C634.52 427.797 624.985 420.02 618.167 409.473C611.349 398.926 607.993 385.609 608.1 369.523V131.739ZM757.702 436V190.545H825.778V436H757.702ZM791.9 158.905C781.779 158.905 773.097 155.549 765.852 148.837C758.714 142.019 755.146 133.869 755.146 124.388C755.146 115.013 758.714 106.969 765.852 100.258C773.097 93.4396 781.779 90.0305 791.9 90.0305C802.021 90.0305 810.65 93.4396 817.788 100.258C825.032 106.969 828.654 115.013 828.654 124.388C828.654 133.869 825.032 142.019 817.788 148.837C810.65 155.549 802.021 158.905 791.9 158.905ZM961.757 439.995C943.114 439.995 926.228 435.201 911.1 425.613C896.079 415.918 884.147 401.696 875.305 382.946C866.569 364.089 862.201 340.972 862.201 313.592C862.201 285.467 866.729 262.083 875.784 243.44C884.84 224.69 896.878 210.68 911.899 201.412C927.027 192.037 943.593 187.349 961.597 187.349C975.34 187.349 986.793 189.693 995.955 194.381C1005.22 198.962 1012.68 204.714 1018.33 211.639C1024.08 218.457 1028.45 225.169 1031.43 231.774H1033.51V108.727H1101.42V436H1034.31V396.689H1031.43C1028.23 403.507 1023.71 410.272 1017.85 416.984C1012.09 423.589 1004.58 429.075 995.315 433.443C986.154 437.811 974.967 439.995 961.757 439.995ZM983.33 385.822C994.303 385.822 1003.57 382.839 1011.14 376.874C1018.81 370.801 1024.67 362.332 1028.71 351.465C1032.87 340.599 1034.95 327.868 1034.95 313.273C1034.95 298.678 1032.92 286 1028.87 275.24C1024.83 264.48 1018.97 256.17 1011.3 250.311C1003.63 244.452 994.303 241.522 983.33 241.522C972.144 241.522 962.716 244.558 955.046 250.631C947.375 256.703 941.569 265.119 937.627 275.879C933.685 286.639 931.715 299.104 931.715 313.273C931.715 327.548 933.685 340.173 937.627 351.146C941.676 362.012 947.482 370.535 955.046 376.714C962.716 382.786 972.144 385.822 983.33 385.822ZM1190.42 528.045C1181.79 528.045 1173.7 527.353 1166.13 525.968C1158.67 524.69 1152.5 523.038 1147.59 521.014L1162.94 470.197C1170.93 472.648 1178.12 473.979 1184.51 474.192C1191.01 474.406 1196.6 472.914 1201.29 469.718C1206.08 466.522 1209.97 461.089 1212.95 453.418L1216.95 443.031L1128.9 190.545H1200.49L1251.31 370.801H1253.86L1305.16 190.545H1377.23L1281.83 462.527C1277.25 475.737 1271.01 487.243 1263.13 497.044C1255.35 506.952 1245.5 514.569 1233.57 519.896C1221.64 525.329 1207.25 528.045 1190.42 528.045ZM1533.62 190.545V241.682H1385.81V190.545H1533.62ZM1419.37 131.739H1487.44V360.574C1487.44 366.859 1488.4 371.76 1490.32 375.276C1492.23 378.685 1494.9 381.082 1498.31 382.467C1501.82 383.852 1505.87 384.544 1510.45 384.544C1513.65 384.544 1516.84 384.278 1520.04 383.745C1523.24 383.106 1525.69 382.626 1527.39 382.307L1538.1 432.964C1534.69 434.029 1529.89 435.254 1523.72 436.639C1517.54 438.131 1510.03 439.036 1501.18 439.356C1484.78 439.995 1470.4 437.811 1458.04 432.804C1445.79 427.797 1436.25 420.02 1429.43 409.473C1422.61 398.926 1419.26 385.609 1419.37 369.523V131.739ZM1568.97 436V190.545H1634.97V233.372H1637.52C1642 218.138 1649.51 206.632 1660.05 198.855C1670.6 190.972 1682.75 187.03 1696.49 187.03C1699.9 187.03 1703.57 187.243 1707.52 187.669C1711.46 188.095 1714.92 188.681 1717.9 189.427V249.832C1714.71 248.873 1710.29 248.021 1704.64 247.275C1698.99 246.529 1693.83 246.156 1689.14 246.156C1679.12 246.156 1670.18 248.34 1662.29 252.708C1654.51 256.969 1648.34 262.935 1643.75 270.606C1639.28 278.276 1637.04 287.119 1637.04 297.133V436H1568.97ZM1844.53 440.794C1819.29 440.794 1797.55 435.68 1779.33 425.453C1761.22 415.119 1747.27 400.524 1737.47 381.668C1727.67 362.705 1722.77 340.279 1722.77 314.391C1722.77 289.143 1727.67 266.984 1737.47 247.914C1747.27 228.844 1761.06 213.983 1778.86 203.33C1796.75 192.676 1817.74 187.349 1841.82 187.349C1858.01 187.349 1873.08 189.96 1887.04 195.18C1901.1 200.293 1913.35 208.017 1923.8 218.351C1934.34 228.685 1942.55 241.682 1948.4 257.342C1954.26 272.896 1957.19 291.114 1957.19 311.994V330.691H1749.93V288.504H1893.11C1893.11 278.702 1890.98 270.02 1886.72 262.456C1882.46 254.892 1876.55 248.979 1868.98 244.718C1861.53 240.35 1852.84 238.166 1842.94 238.166C1832.6 238.166 1823.44 240.563 1815.45 245.357C1807.57 250.045 1801.39 256.384 1796.91 264.374C1792.44 272.257 1790.15 281.046 1790.04 290.741V330.851C1790.04 342.996 1792.28 353.489 1796.75 362.332C1801.33 371.174 1807.78 377.992 1816.09 382.786C1824.4 387.58 1834.25 389.977 1845.65 389.977C1853.22 389.977 1860.14 388.912 1866.43 386.781C1872.71 384.651 1878.09 381.455 1882.57 377.193C1887.04 372.932 1890.45 367.712 1892.79 361.533L1955.76 365.688C1952.56 380.815 1946.01 394.026 1936.1 405.318C1926.3 416.504 1913.62 425.24 1898.07 431.526C1882.62 437.705 1864.78 440.794 1844.53 440.794ZM2054.3 365.368L2054.46 283.71H2064.37L2142.99 190.545H2221.13L2115.51 313.912H2099.37L2054.3 365.368ZM1992.62 436V108.727H2060.69V436H1992.62ZM2146.03 436L2073.8 329.093L2119.18 280.993L2225.77 436H2146.03Z"/>
</mask>
<path d="M722.358 190.545V241.682H574.541V190.545H722.358ZM608.1 131.739H676.175V360.574C676.175 366.859 677.134 371.76 679.051 375.276C680.969 378.685 683.632 381.082 687.041 382.467C690.557 383.852 694.605 384.544 699.186 384.544C702.382 384.544 705.578 384.278 708.774 383.745C711.97 383.106 714.421 382.626 716.125 382.307L726.832 432.964C723.423 434.029 718.629 435.254 712.45 436.639C706.271 438.131 698.76 439.036 689.918 439.356C673.512 439.995 659.13 437.811 646.772 432.804C634.52 427.797 624.985 420.02 618.167 409.473C611.349 398.926 607.993 385.609 608.1 369.523V131.739ZM757.702 436V190.545H825.778V436H757.702ZM791.9 158.905C781.779 158.905 773.097 155.549 765.852 148.837C758.714 142.019 755.146 133.869 755.146 124.388C755.146 115.013 758.714 106.969 765.852 100.258C773.097 93.4396 781.779 90.0305 791.9 90.0305C802.021 90.0305 810.65 93.4396 817.788 100.258C825.032 106.969 828.654 115.013 828.654 124.388C828.654 133.869 825.032 142.019 817.788 148.837C810.65 155.549 802.021 158.905 791.9 158.905ZM961.757 439.995C943.114 439.995 926.228 435.201 911.1 425.613C896.079 415.918 884.147 401.696 875.305 382.946C866.569 364.089 862.201 340.972 862.201 313.592C862.201 285.467 866.729 262.083 875.784 243.44C884.84 224.69 896.878 210.68 911.899 201.412C927.027 192.037 943.593 187.349 961.597 187.349C975.34 187.349 986.793 189.693 995.955 194.381C1005.22 198.962 1012.68 204.714 1018.33 211.639C1024.08 218.457 1028.45 225.169 1031.43 231.774H1033.51V108.727H1101.42V436H1034.31V396.689H1031.43C1028.23 403.507 1023.71 410.272 1017.85 416.984C1012.09 423.589 1004.58 429.075 995.315 433.443C986.154 437.811 974.967 439.995 961.757 439.995ZM983.33 385.822C994.303 385.822 1003.57 382.839 1011.14 376.874C1018.81 370.801 1024.67 362.332 1028.71 351.465C1032.87 340.599 1034.95 327.868 1034.95 313.273C1034.95 298.678 1032.92 286 1028.87 275.24C1024.83 264.48 1018.97 256.17 1011.3 250.311C1003.63 244.452 994.303 241.522 983.33 241.522C972.144 241.522 962.716 244.558 955.046 250.631C947.375 256.703 941.569 265.119 937.627 275.879C933.685 286.639 931.715 299.104 931.715 313.273C931.715 327.548 933.685 340.173 937.627 351.146C941.676 362.012 947.482 370.535 955.046 376.714C962.716 382.786 972.144 385.822 983.33 385.822ZM1190.42 528.045C1181.79 528.045 1173.7 527.353 1166.13 525.968C1158.67 524.69 1152.5 523.038 1147.59 521.014L1162.94 470.197C1170.93 472.648 1178.12 473.979 1184.51 474.192C1191.01 474.406 1196.6 472.914 1201.29 469.718C1206.08 466.522 1209.97 461.089 1212.95 453.418L1216.95 443.031L1128.9 190.545H1200.49L1251.31 370.801H1253.86L1305.16 190.545H1377.23L1281.83 462.527C1277.25 475.737 1271.01 487.243 1263.13 497.044C1255.35 506.952 1245.5 514.569 1233.57 519.896C1221.64 525.329 1207.25 528.045 1190.42 528.045ZM1533.62 190.545V241.682H1385.81V190.545H1533.62ZM1419.37 131.739H1487.44V360.574C1487.44 366.859 1488.4 371.76 1490.32 375.276C1492.23 378.685 1494.9 381.082 1498.31 382.467C1501.82 383.852 1505.87 384.544 1510.45 384.544C1513.65 384.544 1516.84 384.278 1520.04 383.745C1523.24 383.106 1525.69 382.626 1527.39 382.307L1538.1 432.964C1534.69 434.029 1529.89 435.254 1523.72 436.639C1517.54 438.131 1510.03 439.036 1501.18 439.356C1484.78 439.995 1470.4 437.811 1458.04 432.804C1445.79 427.797 1436.25 420.02 1429.43 409.473C1422.61 398.926 1419.26 385.609 1419.37 369.523V131.739ZM1568.97 436V190.545H1634.97V233.372H1637.52C1642 218.138 1649.51 206.632 1660.05 198.855C1670.6 190.972 1682.75 187.03 1696.49 187.03C1699.9 187.03 1703.57 187.243 1707.52 187.669C1711.46 188.095 1714.92 188.681 1717.9 189.427V249.832C1714.71 248.873 1710.29 248.021 1704.64 247.275C1698.99 246.529 1693.83 246.156 1689.14 246.156C1679.12 246.156 1670.18 248.34 1662.29 252.708C1654.51 256.969 1648.34 262.935 1643.75 270.606C1639.28 278.276 1637.04 287.119 1637.04 297.133V436H1568.97ZM1844.53 440.794C1819.29 440.794 1797.55 435.68 1779.33 425.453C1761.22 415.119 1747.27 400.524 1737.47 381.668C1727.67 362.705 1722.77 340.279 1722.77 314.391C1722.77 289.143 1727.67 266.984 1737.47 247.914C1747.27 228.844 1761.06 213.983 1778.86 203.33C1796.75 192.676 1817.74 187.349 1841.82 187.349C1858.01 187.349 1873.08 189.96 1887.04 195.18C1901.1 200.293 1913.35 208.017 1923.8 218.351C1934.34 228.685 1942.55 241.682 1948.4 257.342C1954.26 272.896 1957.19 291.114 1957.19 311.994V330.691H1749.93V288.504H1893.11C1893.11 278.702 1890.98 270.02 1886.72 262.456C1882.46 254.892 1876.55 248.979 1868.98 244.718C1861.53 240.35 1852.84 238.166 1842.94 238.166C1832.6 238.166 1823.44 240.563 1815.45 245.357C1807.57 250.045 1801.39 256.384 1796.91 264.374C1792.44 272.257 1790.15 281.046 1790.04 290.741V330.851C1790.04 342.996 1792.28 353.489 1796.75 362.332C1801.33 371.174 1807.78 377.992 1816.09 382.786C1824.4 387.58 1834.25 389.977 1845.65 389.977C1853.22 389.977 1860.14 388.912 1866.43 386.781C1872.71 384.651 1878.09 381.455 1882.57 377.193C1887.04 372.932 1890.45 367.712 1892.79 361.533L1955.76 365.688C1952.56 380.815 1946.01 394.026 1936.1 405.318C1926.3 416.504 1913.62 425.24 1898.07 431.526C1882.62 437.705 1864.78 440.794 1844.53 440.794ZM2054.3 365.368L2054.46 283.71H2064.37L2142.99 190.545H2221.13L2115.51 313.912H2099.37L2054.3 365.368ZM1992.62 436V108.727H2060.69V436H1992.62ZM2146.03 436L2073.8 329.093L2119.18 280.993L2225.77 436H2146.03Z" fill="white"/>
<path d="M722.358 190.545H723.358V189.545H722.358V190.545ZM722.358 241.682V242.682H723.358V241.682H722.358ZM574.541 241.682H573.541V242.682H574.541V241.682ZM574.541 190.545V189.545H573.541V190.545H574.541ZM608.1 131.739V130.739H607.1V131.739H608.1ZM676.175 131.739H677.175V130.739H676.175V131.739ZM679.051 375.276L678.173 375.754L678.18 375.766L679.051 375.276ZM687.041 382.467L686.665 383.393L686.675 383.397L687.041 382.467ZM708.774 383.745L708.939 384.731L708.955 384.729L708.971 384.726L708.774 383.745ZM716.125 382.307L717.104 382.1L716.902 381.144L715.941 381.324L716.125 382.307ZM726.832 432.964L727.13 433.918L727.998 433.647L727.81 432.757L726.832 432.964ZM712.45 436.639L712.231 435.663L712.223 435.665L712.215 435.667L712.45 436.639ZM689.918 439.356L689.882 438.356L689.879 438.357L689.918 439.356ZM646.772 432.804L646.393 433.73L646.396 433.731L646.772 432.804ZM618.167 409.473L619.007 408.93L619.007 408.93L618.167 409.473ZM608.1 369.523L609.1 369.529V369.523H608.1ZM722.358 190.545H721.358V241.682H722.358H723.358V190.545H722.358ZM722.358 241.682V240.682H574.541V241.682V242.682H722.358V241.682ZM574.541 241.682H575.541V190.545H574.541H573.541V241.682H574.541ZM574.541 190.545V191.545H722.358V190.545V189.545H574.541V190.545ZM608.1 131.739V132.739H676.175V131.739V130.739H608.1V131.739ZM676.175 131.739H675.175V360.574H676.175H677.175V131.739H676.175ZM676.175 360.574H675.175C675.175 366.94 676.143 372.031 678.174 375.754L679.051 375.276L679.929 374.797C678.125 371.489 677.175 366.778 677.175 360.574H676.175ZM679.051 375.276L678.18 375.766C680.201 379.359 683.033 381.917 686.665 383.393L687.041 382.467L687.418 381.54C684.232 380.246 681.737 378.01 679.923 374.785L679.051 375.276ZM687.041 382.467L686.675 383.397C690.329 384.837 694.506 385.544 699.186 385.544V384.544V383.544C694.705 383.544 690.785 382.867 687.408 381.536L687.041 382.467ZM699.186 384.544V385.544C702.438 385.544 705.689 385.273 708.939 384.731L708.774 383.745L708.61 382.759C705.468 383.282 702.327 383.544 699.186 383.544V384.544ZM708.774 383.745L708.971 384.726C712.165 384.087 714.611 383.608 716.31 383.29L716.125 382.307L715.941 381.324C714.23 381.645 711.775 382.125 708.578 382.764L708.774 383.745ZM716.125 382.307L715.147 382.514L725.854 433.171L726.832 432.964L727.81 432.757L717.104 382.1L716.125 382.307ZM726.832 432.964L726.534 432.009C723.163 433.063 718.4 434.281 712.231 435.663L712.45 436.639L712.669 437.615C718.857 436.228 723.682 434.996 727.13 433.918L726.832 432.964ZM712.45 436.639L712.215 435.667C706.121 437.138 698.681 438.038 689.882 438.356L689.918 439.356L689.954 440.355C698.839 440.034 706.421 439.123 712.684 437.611L712.45 436.639ZM689.918 439.356L689.879 438.357C673.582 438.992 659.347 436.82 647.147 431.877L646.772 432.804L646.396 433.731C658.912 438.802 673.441 440.999 689.957 440.355L689.918 439.356ZM646.772 432.804L647.15 431.878C635.077 426.944 625.708 419.296 619.007 408.93L618.167 409.473L617.327 410.016C624.263 420.744 633.963 428.65 646.393 433.73L646.772 432.804ZM618.167 409.473L619.007 408.93C612.321 398.587 608.994 385.475 609.1 369.529L608.1 369.523L607.1 369.516C606.992 385.743 610.377 399.265 617.327 410.016L618.167 409.473ZM608.1 369.523H609.1V131.739H608.1H607.1V369.523H608.1ZM757.702 436H756.702V437H757.702V436ZM757.702 190.545V189.545H756.702V190.545H757.702ZM825.778 190.545H826.778V189.545H825.778V190.545ZM825.778 436V437H826.778V436H825.778ZM765.852 148.837L765.161 149.56L765.167 149.566L765.173 149.571L765.852 148.837ZM765.852 100.258L766.537 100.986L766.538 100.986L765.852 100.258ZM817.788 100.258L817.097 100.981L817.102 100.986L817.108 100.991L817.788 100.258ZM817.788 148.837L818.473 149.566L818.473 149.566L817.788 148.837ZM757.702 436H758.702V190.545H757.702H756.702V436H757.702ZM757.702 190.545V191.545H825.778V190.545V189.545H757.702V190.545ZM825.778 190.545H824.778V436H825.778H826.778V190.545H825.778ZM825.778 436V435H757.702V436V437H825.778V436ZM791.9 158.905V157.905C782.024 157.905 773.586 154.64 766.532 148.104L765.852 148.837L765.173 149.571C772.607 156.458 781.534 159.905 791.9 159.905V158.905ZM765.852 148.837L766.543 148.114C759.594 141.476 756.146 133.584 756.146 124.388H755.146H754.146C754.146 134.155 757.835 142.562 765.161 149.56L765.852 148.837ZM755.146 124.388H756.146C756.146 115.302 759.59 107.519 766.537 100.986L765.852 100.258L765.167 99.5293C757.839 106.42 754.146 114.723 754.146 124.388H755.146ZM765.852 100.258L766.538 100.986C773.593 94.3457 782.029 91.0305 791.9 91.0305V90.0305V89.0305C781.529 89.0305 772.6 92.5335 765.167 99.5296L765.852 100.258ZM791.9 90.0305V91.0305C801.77 91.0305 810.15 94.3454 817.097 100.981L817.788 100.258L818.478 99.5347C811.149 92.5339 802.271 89.0305 791.9 89.0305V90.0305ZM817.788 100.258L817.108 100.991C824.16 107.525 827.654 115.308 827.654 124.388H828.654H829.654C829.654 114.718 825.903 106.414 818.467 99.5243L817.788 100.258ZM828.654 124.388H827.654C827.654 133.579 824.157 141.469 817.102 148.109L817.788 148.837L818.473 149.566C825.907 142.569 829.654 134.16 829.654 124.388H828.654ZM817.788 148.837L817.103 148.109C810.157 154.64 801.775 157.905 791.9 157.905V158.905V159.905C802.266 159.905 811.143 156.458 818.473 149.566L817.788 148.837ZM911.1 425.613L910.558 426.453L910.565 426.458L911.1 425.613ZM875.305 382.946L874.397 383.366L874.4 383.373L875.305 382.946ZM875.784 243.44L876.684 243.877L876.685 243.875L875.784 243.44ZM911.899 201.412L912.424 202.263L912.426 202.262L911.899 201.412ZM995.955 194.381L995.499 195.271L995.512 195.277L995.955 194.381ZM1018.33 211.639L1017.55 212.271L1017.56 212.278L1017.56 212.284L1018.33 211.639ZM1031.43 231.774L1030.52 232.186L1030.78 232.774H1031.43V231.774ZM1033.51 231.774V232.774H1034.51V231.774H1033.51ZM1033.51 108.727V107.727H1032.51V108.727H1033.51ZM1101.42 108.727H1102.42V107.727H1101.42V108.727ZM1101.42 436V437H1102.42V436H1101.42ZM1034.31 436H1033.31V437H1034.31V436ZM1034.31 396.689H1035.31V395.689H1034.31V396.689ZM1031.43 396.689V395.689H1030.79L1030.53 396.264L1031.43 396.689ZM1017.85 416.984L1017.09 416.326L1017.09 416.327L1017.85 416.984ZM995.315 433.443L994.889 432.539L994.885 432.541L995.315 433.443ZM1011.14 376.874L1011.76 377.659L1011.76 377.658L1011.14 376.874ZM1028.71 351.465L1027.78 351.108L1027.78 351.116L1028.71 351.465ZM1028.87 275.24L1029.81 274.888L1029.81 274.888L1028.87 275.24ZM955.046 250.631L954.425 249.847L954.425 249.847L955.046 250.631ZM937.627 351.146L936.686 351.484L936.69 351.495L937.627 351.146ZM955.046 376.714L954.413 377.488L954.419 377.493L954.425 377.498L955.046 376.714ZM961.757 439.995V438.995C943.295 438.995 926.597 434.251 911.636 424.768L911.1 425.613L910.565 426.458C925.86 436.151 942.932 440.995 961.757 440.995V439.995ZM911.1 425.613L911.642 424.773C896.802 415.195 884.985 401.128 876.209 382.519L875.305 382.946L874.4 383.373C883.309 402.264 895.356 416.642 910.558 426.453L911.1 425.613ZM875.305 382.946L876.212 382.526C867.554 363.836 863.201 340.87 863.201 313.592H862.201H861.201C861.201 341.073 865.584 364.343 874.397 383.366L875.305 382.946ZM862.201 313.592H863.201C863.201 285.567 867.714 262.344 876.684 243.877L875.784 243.44L874.885 243.003C865.744 261.822 861.201 285.367 861.201 313.592H862.201ZM875.784 243.44L876.685 243.875C885.672 225.265 897.593 211.415 912.424 202.263L911.899 201.412L911.374 200.561C896.163 209.946 884.007 224.114 874.884 243.005L875.784 243.44ZM911.899 201.412L912.426 202.262C927.394 192.986 943.777 188.349 961.597 188.349V187.349V186.349C943.409 186.349 926.66 191.088 911.372 200.562L911.899 201.412ZM961.597 187.349V188.349C975.233 188.349 986.517 190.676 995.499 195.271L995.955 194.381L996.41 193.49C987.068 188.711 975.448 186.349 961.597 186.349V187.349ZM995.955 194.381L995.512 195.277C1004.67 199.805 1012.01 205.473 1017.55 212.271L1018.33 211.639L1019.1 211.007C1013.35 203.956 1005.77 198.119 996.398 193.484L995.955 194.381ZM1018.33 211.639L1017.56 212.284C1023.27 219.047 1027.58 225.682 1030.52 232.186L1031.43 231.774L1032.34 231.363C1029.31 224.656 1024.89 217.868 1019.09 210.994L1018.33 211.639ZM1031.43 231.774V232.774H1033.51V231.774V230.774H1031.43V231.774ZM1033.51 231.774H1034.51V108.727H1033.51H1032.51V231.774H1033.51ZM1033.51 108.727V109.727H1101.42V108.727V107.727H1033.51V108.727ZM1101.42 108.727H1100.42V436H1101.42H1102.42V108.727H1101.42ZM1101.42 436V435H1034.31V436V437H1101.42V436ZM1034.31 436H1035.31V396.689H1034.31H1033.31V436H1034.31ZM1034.31 396.689V395.689H1031.43V396.689V397.689H1034.31V396.689ZM1031.43 396.689L1030.53 396.264C1027.38 402.984 1022.9 409.672 1017.09 416.326L1017.85 416.984L1018.6 417.641C1024.51 410.872 1029.09 404.03 1032.34 397.113L1031.43 396.689ZM1017.85 416.984L1017.09 416.327C1011.45 422.811 1004.05 428.22 994.889 432.539L995.315 433.443L995.742 434.348C1005.11 429.931 1012.74 424.366 1018.6 417.64L1017.85 416.984ZM995.315 433.443L994.885 432.541C985.892 436.828 974.862 438.995 961.757 438.995V439.995V440.995C975.073 440.995 986.415 438.794 995.746 434.346L995.315 433.443ZM983.33 385.822V386.822C994.495 386.822 1003.99 383.783 1011.76 377.659L1011.14 376.874L1010.52 376.088C1003.15 381.896 994.112 384.822 983.33 384.822V385.822ZM1011.14 376.874L1011.76 377.658C1019.59 371.452 1025.55 362.82 1029.65 351.814L1028.71 351.465L1027.78 351.116C1023.78 361.843 1018.02 370.15 1010.52 376.09L1011.14 376.874ZM1028.71 351.465L1029.65 351.822C1033.86 340.817 1035.95 327.96 1035.95 313.273H1034.95H1033.95C1033.95 327.776 1031.88 340.381 1027.78 351.108L1028.71 351.465ZM1034.95 313.273H1035.95C1035.95 298.588 1033.91 285.786 1029.81 274.888L1028.87 275.24L1027.94 275.592C1031.93 286.214 1033.95 298.767 1033.95 313.273H1034.95ZM1028.87 275.24L1029.81 274.888C1025.71 263.986 1019.75 255.51 1011.9 249.516L1011.3 250.311L1010.69 251.106C1018.18 256.831 1023.94 264.974 1027.94 275.592L1028.87 275.24ZM1011.3 250.311L1011.9 249.516C1004.03 243.506 994.491 240.522 983.33 240.522V241.522V242.522C994.115 242.522 1003.22 245.397 1010.69 251.106L1011.3 250.311ZM983.33 241.522V240.522C971.953 240.522 962.297 243.615 954.425 249.847L955.046 250.631L955.666 251.415C963.135 245.502 972.336 242.522 983.33 242.522V241.522ZM955.046 250.631L954.425 249.847C946.587 256.052 940.682 264.632 936.688 275.535L937.627 275.879L938.566 276.223C942.456 265.606 948.164 257.354 955.666 251.415L955.046 250.631ZM937.627 275.879L936.688 275.535C932.698 286.428 930.715 299.013 930.715 313.273H931.715H932.715C932.715 299.194 934.673 286.85 938.566 276.223L937.627 275.879ZM931.715 313.273H930.715C930.715 327.639 932.698 340.381 936.686 351.484L937.627 351.146L938.568 350.808C934.673 339.964 932.715 327.458 932.715 313.273H931.715ZM937.627 351.146L936.69 351.495C940.789 362.496 946.688 371.178 954.413 377.488L955.046 376.714L955.678 375.939C948.275 369.892 942.562 361.528 938.564 350.796L937.627 351.146ZM955.046 376.714L954.425 377.498C962.297 383.73 971.953 386.822 983.33 386.822V385.822V384.822C972.336 384.822 963.135 381.843 955.666 375.93L955.046 376.714ZM1166.13 525.968L1166.31 524.984L1166.3 524.982L1166.13 525.968ZM1147.59 521.014L1146.64 520.725L1146.38 521.593L1147.21 521.938L1147.59 521.014ZM1162.94 470.197L1163.23 469.241L1162.27 468.947L1161.98 469.908L1162.94 470.197ZM1184.51 474.192L1184.48 475.192L1184.48 475.192L1184.51 474.192ZM1201.29 469.718L1200.73 468.886L1200.72 468.892L1201.29 469.718ZM1212.95 453.418L1213.89 453.781L1213.89 453.777L1212.95 453.418ZM1216.95 443.031L1217.88 443.39L1218.01 443.048L1217.89 442.702L1216.95 443.031ZM1128.9 190.545V189.545H1127.49L1127.95 190.875L1128.9 190.545ZM1200.49 190.545L1201.45 190.274L1201.25 189.545H1200.49V190.545ZM1251.31 370.801L1250.34 371.072L1250.55 371.801H1251.31V370.801ZM1253.86 370.801V371.801H1254.62L1254.82 371.075L1253.86 370.801ZM1305.16 190.545V189.545H1304.4L1304.2 190.272L1305.16 190.545ZM1377.23 190.545L1378.17 190.876L1378.64 189.545H1377.23V190.545ZM1281.83 462.527L1280.88 462.196L1280.88 462.199L1281.83 462.527ZM1263.13 497.044L1262.35 496.417L1262.34 496.427L1263.13 497.044ZM1233.57 519.896L1233.16 518.982L1233.15 518.986L1233.57 519.896ZM1190.42 528.045V527.045C1181.85 527.045 1173.81 526.357 1166.31 524.984L1166.13 525.968L1165.95 526.952C1173.58 528.349 1181.74 529.045 1190.42 529.045V528.045ZM1166.13 525.968L1166.3 524.982C1158.89 523.712 1152.79 522.077 1147.98 520.09L1147.59 521.014L1147.21 521.938C1152.2 524 1158.46 525.668 1165.96 526.954L1166.13 525.968ZM1147.59 521.014L1148.55 521.303L1163.89 470.486L1162.94 470.197L1161.98 469.908L1146.64 520.725L1147.59 521.014ZM1162.94 470.197L1162.64 471.153C1170.69 473.622 1177.97 474.975 1184.48 475.192L1184.51 474.192L1184.54 473.193C1178.26 472.984 1171.16 471.673 1163.23 469.241L1162.94 470.197ZM1184.51 474.192L1184.48 475.192C1191.15 475.411 1196.96 473.877 1201.85 470.544L1201.29 469.718L1200.72 468.892C1196.24 471.951 1190.86 473.4 1184.54 473.193L1184.51 474.192ZM1201.29 469.718L1201.84 470.55C1206.87 467.201 1210.86 461.564 1213.89 453.781L1212.95 453.418L1212.02 453.056C1209.08 460.614 1205.3 465.843 1200.73 468.886L1201.29 469.718ZM1212.95 453.418L1213.89 453.777L1217.88 443.39L1216.95 443.031L1216.02 442.672L1212.02 453.059L1212.95 453.418ZM1216.95 443.031L1217.89 442.702L1129.84 190.216L1128.9 190.545L1127.95 190.875L1216 443.361L1216.95 443.031ZM1128.9 190.545V191.545H1200.49V190.545V189.545H1128.9V190.545ZM1200.49 190.545L1199.53 190.817L1250.34 371.072L1251.31 370.801L1252.27 370.53L1201.45 190.274L1200.49 190.545ZM1251.31 370.801V371.801H1253.86V370.801V369.801H1251.31V370.801ZM1253.86 370.801L1254.82 371.075L1306.12 190.819L1305.16 190.545L1304.2 190.272L1252.9 370.527L1253.86 370.801ZM1305.16 190.545V191.545H1377.23V190.545V189.545H1305.16V190.545ZM1377.23 190.545L1376.29 190.214L1280.88 462.196L1281.83 462.527L1282.77 462.858L1378.17 190.876L1377.23 190.545ZM1281.83 462.527L1280.88 462.199C1276.34 475.313 1270.16 486.715 1262.35 496.417L1263.13 497.044L1263.91 497.671C1271.87 487.771 1278.16 476.161 1282.77 462.855L1281.83 462.527ZM1263.13 497.044L1262.34 496.427C1254.67 506.201 1244.95 513.719 1233.16 518.982L1233.57 519.896L1233.98 520.809C1246.05 515.418 1256.04 507.702 1263.92 497.661L1263.13 497.044ZM1233.57 519.896L1233.15 518.986C1221.38 524.345 1207.15 527.045 1190.42 527.045V528.045V529.045C1207.36 529.045 1221.89 526.312 1233.98 520.806L1233.57 519.896ZM1533.62 190.545H1534.62V189.545H1533.62V190.545ZM1533.62 241.682V242.682H1534.62V241.682H1533.62ZM1385.81 241.682H1384.81V242.682H1385.81V241.682ZM1385.81 190.545V189.545H1384.81V190.545H1385.81ZM1419.37 131.739V130.739H1418.37V131.739H1419.37ZM1487.44 131.739H1488.44V130.739H1487.44V131.739ZM1490.32 375.276L1489.44 375.754L1489.45 375.766L1490.32 375.276ZM1498.31 382.467L1497.93 383.393L1497.94 383.397L1498.31 382.467ZM1520.04 383.745L1520.2 384.731L1520.22 384.729L1520.24 384.726L1520.04 383.745ZM1527.39 382.307L1528.37 382.1L1528.17 381.144L1527.21 381.324L1527.39 382.307ZM1538.1 432.964L1538.4 433.918L1539.26 433.647L1539.08 432.757L1538.1 432.964ZM1523.72 436.639L1523.5 435.663L1523.49 435.665L1523.48 435.667L1523.72 436.639ZM1501.18 439.356L1501.15 438.356L1501.14 438.357L1501.18 439.356ZM1458.04 432.804L1457.66 433.73L1457.66 433.731L1458.04 432.804ZM1429.43 409.473L1430.27 408.93L1430.27 408.93L1429.43 409.473ZM1419.37 369.523L1420.37 369.529V369.523H1419.37ZM1533.62 190.545H1532.62V241.682H1533.62H1534.62V190.545H1533.62ZM1533.62 241.682V240.682H1385.81V241.682V242.682H1533.62V241.682ZM1385.81 241.682H1386.81V190.545H1385.81H1384.81V241.682H1385.81ZM1385.81 190.545V191.545H1533.62V190.545V189.545H1385.81V190.545ZM1419.37 131.739V132.739H1487.44V131.739V130.739H1419.37V131.739ZM1487.44 131.739H1486.44V360.574H1487.44H1488.44V131.739H1487.44ZM1487.44 360.574H1486.44C1486.44 366.94 1487.41 372.031 1489.44 375.754L1490.32 375.276L1491.19 374.797C1489.39 371.489 1488.44 366.778 1488.44 360.574H1487.44ZM1490.32 375.276L1489.45 375.766C1491.47 379.359 1494.3 381.917 1497.93 383.393L1498.31 382.467L1498.68 381.54C1495.5 380.246 1493 378.01 1491.19 374.785L1490.32 375.276ZM1498.31 382.467L1497.94 383.397C1501.59 384.837 1505.77 385.544 1510.45 385.544V384.544V383.544C1505.97 383.544 1502.05 382.867 1498.67 381.536L1498.31 382.467ZM1510.45 384.544V385.544C1513.7 385.544 1516.95 385.273 1520.2 384.731L1520.04 383.745L1519.88 382.759C1516.73 383.282 1513.59 383.544 1510.45 383.544V384.544ZM1520.04 383.745L1520.24 384.726C1523.43 384.087 1525.88 383.608 1527.58 383.29L1527.39 382.307L1527.21 381.324C1525.5 381.645 1523.04 382.125 1519.84 382.764L1520.04 383.745ZM1527.39 382.307L1526.41 382.514L1537.12 433.171L1538.1 432.964L1539.08 432.757L1528.37 382.1L1527.39 382.307ZM1538.1 432.964L1537.8 432.009C1534.43 433.063 1529.67 434.281 1523.5 435.663L1523.72 436.639L1523.93 437.615C1530.12 436.228 1534.95 434.996 1538.4 433.918L1538.1 432.964ZM1523.72 436.639L1523.48 435.667C1517.39 437.138 1509.95 438.038 1501.15 438.356L1501.18 439.356L1501.22 440.355C1510.1 440.034 1517.69 439.123 1523.95 437.611L1523.72 436.639ZM1501.18 439.356L1501.14 438.357C1484.85 438.992 1470.61 436.82 1458.41 431.877L1458.04 432.804L1457.66 433.731C1470.18 438.802 1484.71 440.999 1501.22 440.355L1501.18 439.356ZM1458.04 432.804L1458.42 431.878C1446.34 426.944 1436.97 419.296 1430.27 408.93L1429.43 409.473L1428.59 410.016C1435.53 420.744 1445.23 428.65 1457.66 433.73L1458.04 432.804ZM1429.43 409.473L1430.27 408.93C1423.59 398.587 1420.26 385.475 1420.37 369.529L1419.37 369.523L1418.37 369.516C1418.26 385.743 1421.64 399.265 1428.59 410.016L1429.43 409.473ZM1419.37 369.523H1420.37V131.739H1419.37H1418.37V369.523H1419.37ZM1568.97 436H1567.97V437H1568.97V436ZM1568.97 190.545V189.545H1567.97V190.545H1568.97ZM1634.97 190.545H1635.97V189.545H1634.97V190.545ZM1634.97 233.372H1633.97V234.372H1634.97V233.372ZM1637.52 233.372V234.372H1638.27L1638.48 233.654L1637.52 233.372ZM1660.05 198.855L1660.65 199.66L1660.65 199.656L1660.05 198.855ZM1707.52 187.669L1707.62 186.675L1707.62 186.675L1707.52 187.669ZM1717.9 189.427H1718.9V188.646L1718.15 188.457L1717.9 189.427ZM1717.9 249.832L1717.62 250.789L1718.9 251.176V249.832H1717.9ZM1662.29 252.708L1662.77 253.585L1662.78 253.583L1662.29 252.708ZM1643.75 270.606L1642.9 270.093L1642.89 270.102L1643.75 270.606ZM1637.04 436V437H1638.04V436H1637.04ZM1568.97 436H1569.97V190.545H1568.97H1567.97V436H1568.97ZM1568.97 190.545V191.545H1634.97V190.545V189.545H1568.97V190.545ZM1634.97 190.545H1633.97V233.372H1634.97H1635.97V190.545H1634.97ZM1634.97 233.372V234.372H1637.52V233.372V232.372H1634.97V233.372ZM1637.52 233.372L1638.48 233.654C1642.91 218.584 1650.31 207.282 1660.65 199.66L1660.05 198.855L1659.46 198.05C1648.7 205.983 1641.09 217.692 1636.56 233.09L1637.52 233.372ZM1660.05 198.855L1660.65 199.656C1671.02 191.908 1682.95 188.03 1696.49 188.03V187.03V186.03C1682.54 186.03 1670.18 190.035 1659.46 198.054L1660.05 198.855ZM1696.49 187.03V188.03C1699.86 188.03 1703.5 188.24 1707.41 188.663L1707.52 187.669L1707.62 186.675C1703.65 186.245 1699.94 186.03 1696.49 186.03V187.03ZM1707.52 187.669L1707.41 188.663C1711.32 189.086 1714.73 189.665 1717.66 190.397L1717.9 189.427L1718.15 188.457C1715.11 187.697 1711.6 187.105 1707.62 186.675L1707.52 187.669ZM1717.9 189.427H1716.9V249.832H1717.9H1718.9V189.427H1717.9ZM1717.9 249.832L1718.19 248.874C1714.92 247.893 1710.44 247.032 1704.77 246.283L1704.64 247.275L1704.51 248.266C1710.13 249.009 1714.49 249.853 1717.62 250.789L1717.9 249.832ZM1704.64 247.275L1704.77 246.283C1699.09 245.533 1693.88 245.156 1689.14 245.156V246.156V247.156C1693.77 247.156 1698.9 247.525 1704.51 248.266L1704.64 247.275ZM1689.14 246.156V245.156C1678.97 245.156 1669.85 247.374 1661.81 251.833L1662.29 252.708L1662.78 253.583C1670.5 249.306 1679.27 247.156 1689.14 247.156V246.156ZM1662.29 252.708L1661.81 251.831C1653.88 256.179 1647.57 262.271 1642.9 270.093L1643.75 270.606L1644.61 271.119C1649.1 263.6 1655.15 257.76 1662.77 253.585L1662.29 252.708ZM1643.75 270.606L1642.89 270.102C1638.32 277.944 1636.04 286.965 1636.04 297.133H1637.04H1638.04C1638.04 287.273 1640.24 278.608 1644.62 271.11L1643.75 270.606ZM1637.04 297.133H1636.04V436H1637.04H1638.04V297.133H1637.04ZM1637.04 436V435H1568.97V436V437H1637.04V436ZM1779.33 425.453L1778.84 426.322L1778.85 426.325L1779.33 425.453ZM1737.47 381.668L1736.58 382.127L1736.58 382.129L1737.47 381.668ZM1737.47 247.914L1736.58 247.457L1736.58 247.457L1737.47 247.914ZM1778.86 203.33L1778.34 202.47L1778.34 202.472L1778.86 203.33ZM1887.04 195.18L1886.69 196.116L1886.7 196.119L1887.04 195.18ZM1923.8 218.351L1923.09 219.062L1923.1 219.065L1923.8 218.351ZM1948.4 257.342L1947.47 257.693L1947.47 257.695L1948.4 257.342ZM1957.19 330.691V331.691H1958.19V330.691H1957.19ZM1749.93 330.691H1748.93V331.691H1749.93V330.691ZM1749.93 288.504V287.504H1748.93V288.504H1749.93ZM1893.11 288.504V289.504H1894.11V288.504H1893.11ZM1886.72 262.456L1885.85 262.947L1885.85 262.947L1886.72 262.456ZM1868.98 244.718L1868.48 245.581L1868.49 245.585L1868.49 245.589L1868.98 244.718ZM1815.45 245.357L1815.96 246.217L1815.96 246.215L1815.45 245.357ZM1796.91 264.374L1797.78 264.867L1797.79 264.862L1796.91 264.374ZM1790.04 290.741L1789.04 290.73V290.741H1790.04ZM1796.75 362.332L1795.86 362.783L1795.87 362.792L1796.75 362.332ZM1866.43 386.781L1866.11 385.834L1866.11 385.834L1866.43 386.781ZM1882.57 377.193L1881.88 376.469L1881.88 376.469L1882.57 377.193ZM1892.79 361.533L1892.86 360.535L1892.12 360.486L1891.86 361.178L1892.79 361.533ZM1955.76 365.688L1956.73 365.894L1956.97 364.766L1955.82 364.69L1955.76 365.688ZM1936.1 405.318L1935.35 404.659L1935.35 404.659L1936.1 405.318ZM1898.07 431.526L1898.44 432.454L1898.44 432.453L1898.07 431.526ZM1844.53 440.794V439.794C1819.42 439.794 1797.86 434.709 1779.82 424.581L1779.33 425.453L1778.85 426.325C1797.24 436.652 1819.15 441.794 1844.53 441.794V440.794ZM1779.33 425.453L1779.83 424.585C1761.89 414.348 1748.07 399.896 1738.35 381.206L1737.47 381.668L1736.58 382.129C1746.47 401.152 1760.56 415.891 1778.84 426.322L1779.33 425.453ZM1737.47 381.668L1738.36 381.208C1728.64 362.414 1723.77 340.153 1723.77 314.391H1722.77H1721.77C1721.77 340.405 1726.69 362.995 1736.58 382.127L1737.47 381.668ZM1722.77 314.391H1723.77C1723.77 289.274 1728.64 267.276 1738.36 248.371L1737.47 247.914L1736.58 247.457C1726.69 266.691 1721.77 289.012 1721.77 314.391H1722.77ZM1737.47 247.914L1738.36 248.371C1748.08 229.462 1761.74 214.742 1779.37 204.187L1778.86 203.33L1778.34 202.472C1760.38 213.224 1746.46 228.227 1736.58 247.457L1737.47 247.914ZM1778.86 203.33L1779.37 204.189C1797.09 193.641 1817.89 188.349 1841.82 188.349V187.349V186.349C1817.59 186.349 1796.42 191.711 1778.34 202.47L1778.86 203.33ZM1841.82 187.349V188.349C1857.9 188.349 1872.86 190.942 1886.69 196.116L1887.04 195.18L1887.39 194.243C1873.31 188.977 1858.12 186.349 1841.82 186.349V187.349ZM1887.04 195.18L1886.7 196.119C1900.63 201.185 1912.76 208.831 1923.09 219.062L1923.8 218.351L1924.5 217.64C1913.95 207.203 1901.58 199.402 1887.38 194.24L1887.04 195.18ZM1923.8 218.351L1923.1 219.065C1933.52 229.284 1941.65 242.151 1947.47 257.693L1948.4 257.342L1949.34 256.992C1943.44 241.212 1935.16 228.086 1924.5 217.637L1923.8 218.351ZM1948.4 257.342L1947.47 257.695C1953.28 273.111 1956.19 291.204 1956.19 311.994H1957.19H1958.19C1958.19 291.023 1955.25 272.681 1949.34 256.99L1948.4 257.342ZM1957.19 311.994H1956.19V330.691H1957.19H1958.19V311.994H1957.19ZM1957.19 330.691V329.691H1749.93V330.691V331.691H1957.19V330.691ZM1749.93 330.691H1750.93V288.504H1749.93H1748.93V330.691H1749.93ZM1749.93 288.504V289.504H1893.11V288.504V287.504H1749.93V288.504ZM1893.11 288.504H1894.11C1894.11 278.553 1891.95 269.697 1887.59 261.965L1886.72 262.456L1885.85 262.947C1890.02 270.342 1892.11 278.852 1892.11 288.504H1893.11ZM1886.72 262.456L1887.59 261.965C1883.24 254.242 1877.2 248.198 1869.47 243.847L1868.98 244.718L1868.49 245.589C1875.9 249.761 1881.68 255.542 1885.85 262.947L1886.72 262.456ZM1868.98 244.718L1869.49 243.855C1861.86 239.385 1852.99 237.166 1842.94 237.166V238.166V239.166C1852.69 239.166 1861.2 241.315 1868.48 245.581L1868.98 244.718ZM1842.94 238.166V237.166C1832.44 237.166 1823.1 239.603 1814.94 244.5L1815.45 245.357L1815.96 246.215C1823.78 241.524 1832.76 239.166 1842.94 239.166V238.166ZM1815.45 245.357L1814.94 244.498C1806.9 249.275 1800.6 255.741 1796.04 263.885L1796.91 264.374L1797.79 264.862C1802.17 257.026 1808.23 250.815 1815.96 246.217L1815.45 245.357ZM1796.91 264.374L1796.04 263.88C1791.48 271.921 1789.15 280.878 1789.04 290.73L1790.04 290.741L1791.04 290.752C1791.15 281.214 1793.4 272.593 1797.78 264.867L1796.91 264.374ZM1790.04 290.741H1789.04V330.851H1790.04H1791.04V290.741H1790.04ZM1790.04 330.851H1789.04C1789.04 343.118 1791.3 353.773 1795.86 362.783L1796.75 362.332L1797.65 361.88C1793.26 353.206 1791.04 342.874 1791.04 330.851H1790.04ZM1796.75 362.332L1795.87 362.792C1800.53 371.797 1807.11 378.759 1815.59 383.652L1816.09 382.786L1816.59 381.92C1808.45 377.225 1802.14 370.551 1797.64 361.872L1796.75 362.332ZM1816.09 382.786L1815.59 383.652C1824.08 388.549 1834.11 390.977 1845.65 390.977V389.977V388.977C1834.4 388.977 1824.72 386.611 1816.59 381.92L1816.09 382.786ZM1845.65 389.977V390.977C1853.31 390.977 1860.35 389.899 1866.75 387.728L1866.43 386.781L1866.11 385.834C1859.94 387.925 1853.12 388.977 1845.65 388.977V389.977ZM1866.43 386.781L1866.75 387.728C1873.16 385.555 1878.67 382.286 1883.26 377.917L1882.57 377.193L1881.88 376.469C1877.52 380.623 1872.26 383.747 1866.11 385.834L1866.43 386.781ZM1882.57 377.193L1883.26 377.917C1887.85 373.546 1891.34 368.196 1893.73 361.887L1892.79 361.533L1891.86 361.178C1889.56 367.227 1886.24 372.318 1881.88 376.469L1882.57 377.193ZM1892.79 361.533L1892.73 362.531L1955.69 366.685L1955.76 365.688L1955.82 364.69L1892.86 360.535L1892.79 361.533ZM1955.76 365.688L1954.78 365.481C1951.62 380.446 1945.14 393.499 1935.35 404.659L1936.1 405.318L1936.85 405.978C1946.88 394.552 1953.5 381.185 1956.73 365.894L1955.76 365.688ZM1936.1 405.318L1935.35 404.659C1925.66 415.713 1913.12 424.364 1897.69 430.598L1898.07 431.526L1898.44 432.453C1914.12 426.116 1926.94 417.295 1936.85 405.977L1936.1 405.318ZM1898.07 431.526L1897.7 430.597C1882.39 436.72 1864.67 439.794 1844.53 439.794V440.794V441.794C1864.88 441.794 1882.85 438.689 1898.44 432.454L1898.07 431.526ZM2054.3 365.368L2053.3 365.366L2053.3 368.034L2055.05 366.027L2054.3 365.368ZM2054.46 283.71V282.71H2053.46L2053.46 283.708L2054.46 283.71ZM2064.37 283.71V284.71H2064.83L2065.13 284.354L2064.37 283.71ZM2142.99 190.545V189.545H2142.53L2142.23 189.901L2142.99 190.545ZM2221.13 190.545L2221.89 191.196L2223.31 189.545H2221.13V190.545ZM2115.51 313.912V314.912H2115.97L2116.27 314.562L2115.51 313.912ZM2099.37 313.912V312.912H2098.91L2098.61 313.253L2099.37 313.912ZM1992.62 436H1991.62V437H1992.62V436ZM1992.62 108.727V107.727H1991.62V108.727H1992.62ZM2060.69 108.727H2061.69V107.727H2060.69V108.727ZM2060.69 436V437H2061.69V436H2060.69ZM2146.03 436L2145.2 436.56L2145.5 437H2146.03V436ZM2073.8 329.093L2073.07 328.407L2072.52 328.989L2072.97 329.653L2073.8 329.093ZM2119.18 280.993L2120 280.426L2119.3 279.406L2118.45 280.307L2119.18 280.993ZM2225.77 436V437H2227.67L2226.59 435.433L2225.77 436ZM2054.3 365.368L2055.3 365.37L2055.46 283.711L2054.46 283.71L2053.46 283.708L2053.3 365.366L2054.3 365.368ZM2054.46 283.71V284.71H2064.37V283.71V282.71H2054.46V283.71ZM2064.37 283.71L2065.13 284.354L2143.76 191.19L2142.99 190.545L2142.23 189.901L2063.6 283.065L2064.37 283.71ZM2142.99 190.545V191.545H2221.13V190.545V189.545H2142.99V190.545ZM2221.13 190.545L2220.37 189.895L2114.75 313.262L2115.51 313.912L2116.27 314.562L2221.89 191.196L2221.13 190.545ZM2115.51 313.912V312.912H2099.37V313.912V314.912H2115.51V313.912ZM2099.37 313.912L2098.61 313.253L2053.55 364.709L2054.3 365.368L2055.05 366.027L2100.12 314.571L2099.37 313.912ZM1992.62 436H1993.62V108.727H1992.62H1991.62V436H1992.62ZM1992.62 108.727V109.727H2060.69V108.727V107.727H1992.62V108.727ZM2060.69 108.727H2059.69V436H2060.69H2061.69V108.727H2060.69ZM2060.69 436V435H1992.62V436V437H2060.69V436ZM2146.03 436L2146.86 435.44L2074.63 328.533L2073.8 329.093L2072.97 329.653L2145.2 436.56L2146.03 436ZM2073.8 329.093L2074.52 329.779L2119.91 281.679L2119.18 280.993L2118.45 280.307L2073.07 328.407L2073.8 329.093ZM2119.18 280.993L2118.36 281.559L2224.94 436.567L2225.77 436L2226.59 435.433L2120 280.426L2119.18 280.993ZM2225.77 436V435H2146.03V436V437H2225.77V436Z" fill="white" mask="url(#path-1-outside-1_11_69)"/>
<path d="M225 387C342.084 387 437 410.057 437 438.5C437 466.943 342.084 490 225 490C107.916 490 13 466.943 13 438.5C13 410.057 107.916 387 225 387Z" fill="white"/>
<path d="M156.012 108C186.804 54.6667 263.784 54.6667 294.576 108L439.751 359.45C458.365 391.691 451.659 428.802 429.84 453.115L258.328 151.457C243.759 125.833 206.829 125.833 192.26 151.457L20.7469 453.115C-1.07181 428.802 -7.77743 391.691 10.8367 359.45L156.012 108Z" fill="white"/>
<line x1="225" y1="90" x2="225" y2="475" stroke="white" stroke-width="40"/>
</svg>
